<?xml version="1.0" encoding="utf-8"?>
<!-- Generator: Adobe Illustrator 16.0.4, SVG Export Plug-In . SVG Version: 6.00 Build 0)  -->
<!DOCTYPE svg PUBLIC "-//W3C//DTD SVG 1.1//EN" "http://www.w3.org/Graphics/SVG/1.1/DTD/svg11.dtd">
<svg version="1.1" id="Layer_1" xmlns="http://www.w3.org/2000/svg" xmlns:xlink="http://www.w3.org/1999/xlink" x="0px" y="0px"
	 width="1792px" height="1792px" viewBox="0 0 1792 1792" enable-background="new 0 0 1792 1792" xml:space="preserve">
<path d="M491.538,430.615c23.922,0,47.844,8.945,66.109,26.477c18.258,17.625,27.391,40.812,27.391,63.914
	c0,23.016-9.133,46.203-27.391,63.734L327.913,806.717h1362.875c51.633,0,93.406,40.445,93.406,90.305
	c0,49.852-41.773,90.211-93.406,90.211H327.733l229.914,222.062c36.523,35.289,36.523,92.406,0,127.648
	c-36.344,35.242-95.695,35.242-132.031,0L36.64,961.256c-7.852-7.445-14.242-16.164-18.992-25.977c0,0,0,0,0-0.094l-0.188-0.094
	c-1.094-2.141-1.82-4.383-2.734-6.758c0,0-0.188,0-0.188-0.086v-0.094c0-0.094,0-0.094,0-0.18l0,0
	c-5.289-14.109-6.938-28.898-4.93-43.281l0,0c0-0.188,0-0.188,0-0.188c0-0.086,0-0.18,0-0.18c0.188-0.18,0.188-0.18,0.188-0.273l0,0
	c0-0.094,0-0.18,0-0.18v-0.094c0.359-2.742,1.094-5.391,1.641-8.125c0-0.188,0,0,0.18-0.367l0,0l0,0
	c3.836-15.344,11.875-29.398,23.562-41.18l0,0c0,0,0,0,0.18-0.18l0,0c0.188-0.094,0.188-0.094,0.188-0.094l0,0
	c0-0.094,0-0.273,0.359-0.273c0-0.094,0-0.094,0-0.188l0,0c0.188-0.18,0.188-0.18,0.188-0.18l389.523-376.102
	C443.874,439.561,467.796,430.615,491.538,430.615z"/>
</svg>
