<svg id="Artwork" xmlns="http://www.w3.org/2000/svg" viewBox="0 0 224 177"><defs><style>.cls-1{fill:#231f20;}</style></defs><title>autosupport-on-demand</title><path class="cls-1" d="M151.87,63.37h-5.34a1.5,1.5,0,0,1-1.46-1.06,34.08,34.08,0,0,0-2.41-5.79,1.52,1.52,0,0,1,.25-1.81l3.78-3.77a3.07,3.07,0,0,0,0-4.33L138,37.94a3.06,3.06,0,0,0-4.33,0l-3.78,3.78a1.53,1.53,0,0,1-1.81.26,33.88,33.88,0,0,0-5.73-2.4,1.48,1.48,0,0,1-1-1.46V32.79a3.33,3.33,0,0,0-3.19-3.24H105.9a3.38,3.38,0,0,0-3.24,3.24v5.32a1.46,1.46,0,0,1-1,1.46A33.59,33.59,0,0,0,95.89,42a1.5,1.5,0,0,1-1.79-.26L90.35,38A3.07,3.07,0,0,0,86,38l-8.66,8.67a3.07,3.07,0,0,0,0,4.33l3.76,3.76a1.53,1.53,0,0,1,.26,1.81A34.08,34.08,0,0,0,79,62.3a1.5,1.5,0,0,1-1.46,1.06H72.19a3,3,0,0,0-2.91,3.12V78.75a2.77,2.77,0,0,0,2.91,2.86h5.32A1.63,1.63,0,0,1,79,82.8a34.53,34.53,0,0,0,2.4,5.86,1.56,1.56,0,0,1-.26,1.83l-3.77,3.78a3.08,3.08,0,0,0,0,4.34L86,107.28a3.06,3.06,0,0,0,4.33,0l3.76-3.76a1.53,1.53,0,0,1,1.8-.26,33.71,33.71,0,0,0,5.73,2.41,1.46,1.46,0,0,1,1,1.46v5.34a3.13,3.13,0,0,0,3.24,3h12.26a3.08,3.08,0,0,0,3.19-3v-5.34a1.48,1.48,0,0,1,1-1.46,34.14,34.14,0,0,0,5.77-2.41,1.51,1.51,0,0,1,1.79.26l3.76,3.77a3.06,3.06,0,0,0,4.33,0l8.67-8.67a3.07,3.07,0,0,0,0-4.34l-3.78-3.77a1.53,1.53,0,0,1-.26-1.81,34.88,34.88,0,0,0,2.4-5.91,1.64,1.64,0,0,1,1.46-1.2h5.33a2.72,2.72,0,0,0,2.85-2.86V66.49A2.94,2.94,0,0,0,151.87,63.37ZM112,88a15.33,15.33,0,1,1,15.33-15.33A15.33,15.33,0,0,1,112,88Z"/><path class="cls-1" d="M216,0H8A8,8,0,0,0,0,8V136a8,8,0,0,0,8,8H83.5a5.5,5.5,0,0,1,0,11H66a8,8,0,0,0-8,8v6a8,8,0,0,0,8,8h92a8,8,0,0,0,8-8v-6a8,8,0,0,0-8-8H140.5a5.5,5.5,0,0,1,0-11H216a8,8,0,0,0,8-8V8A8,8,0,0,0,216,0ZM202,118a4,4,0,0,1-4,4H26a4,4,0,0,1-4-4V26a4,4,0,0,1,4-4H198a4,4,0,0,1,4,4Z"/></svg>