<svg xmlns="http://www.w3.org/2000/svg" viewBox="0 0 192 193.1"><defs><style>.cls-1{fill:#454545;}</style></defs><title>autosupport</title><g id="Layer_2" data-name="Layer 2"><g id="Artwork"><path class="cls-1" d="M185.6,76.1h-12a3.42,3.42,0,0,1-3.3-2.4,74.2,74.2,0,0,0-5.4-13,3.5,3.5,0,0,1,.6-4.1l8.5-8.5a6.82,6.82,0,0,0,0-9.7L154.5,18.9a6.82,6.82,0,0,0-9.7,0l-8.5,8.5a3.48,3.48,0,0,1-4.1.6,70.19,70.19,0,0,0-12.9-5.4,3.46,3.46,0,0,1-2.3-3.3V7.3A7.53,7.53,0,0,0,109.8,0H82.3A7.79,7.79,0,0,0,75,7.4v12a3.33,3.33,0,0,1-2.3,3.3,73.22,73.22,0,0,0-12.9,5.4,3.35,3.35,0,0,1-4-.6L47.4,19a6.82,6.82,0,0,0-9.7,0L18.1,38.5a6.82,6.82,0,0,0,0,9.7l8.5,8.5a3.48,3.48,0,0,1,.6,4.1,71.15,71.15,0,0,0-5.4,13,3.46,3.46,0,0,1-3.3,2.3H6.5c-3.8,0-6.5,3.2-6.5,7v27.6a6.17,6.17,0,0,0,6.5,6.4h12a3.71,3.71,0,0,1,3.3,2.7A76.18,76.18,0,0,0,27.2,133a3.48,3.48,0,0,1-.6,4.1l-8.5,8.5a6.94,6.94,0,0,0,0,9.8l19.5,19.5a6.82,6.82,0,0,0,9.7,0l8.5-8.5a3.35,3.35,0,0,1,4-.6,73.22,73.22,0,0,0,12.9,5.4,3.33,3.33,0,0,1,2.3,3.3v12c0,3.8,3.5,6.6,7.3,6.6h27.5c3.8,0,7.2-2.8,7.2-6.6v-12a3.46,3.46,0,0,1,2.3-3.3,77.52,77.52,0,0,0,13-5.4,3.35,3.35,0,0,1,4,.6l8.5,8.5a6.82,6.82,0,0,0,9.7,0L174,155.4a6.82,6.82,0,0,0,0-9.7l-8.5-8.5a3.48,3.48,0,0,1-.6-4.1,74.08,74.08,0,0,0,5.4-13.3,3.85,3.85,0,0,1,3.3-2.7h12a6.09,6.09,0,0,0,6.4-6.4V83.1C192,79.3,189.4,76.1,185.6,76.1ZM96.1,138.2a41.3,41.3,0,1,1,41.3-41.3A41.31,41.31,0,0,1,96.1,138.2Z"/></g></g></svg>