<svg xmlns="http://www.w3.org/2000/svg" viewBox="0 0 546.46 500"><defs><style>.cls-1{fill:#454545;}</style></defs><title>autosupport-slash</title><g id="Layer_2" data-name="Layer 2"><g id="Layer_1-2" data-name="Layer 1"><path class="cls-1" d="M517.71,198.18H486.86a8.79,8.79,0,0,1-8.48-6.17,190.78,190.78,0,0,0-13.88-33.42A9,9,0,0,1,466,148l21.85-21.85a17.54,17.54,0,0,0,.14-24.8l-.14-.14L480.61,94,377.46,195.07A106.2,106.2,0,0,1,229.22,340.36l-103,100.91,10.93,10.93a17.54,17.54,0,0,0,24.8.14l.14-.14L184,430.35a8.61,8.61,0,0,1,10.28-1.54,188.26,188.26,0,0,0,33.17,13.88,8.56,8.56,0,0,1,5.91,8.48V482c0,9.77,9,17,18.77,17h70.71c9.77,0,18.51-7.2,18.51-17V451.18a8.9,8.9,0,0,1,5.91-8.48,199.32,199.32,0,0,0,33.42-13.88A8.61,8.61,0,0,1,391,430.35l21.85,21.85a17.54,17.54,0,0,0,24.8.14l.14-.14,50.14-50.14a17.54,17.54,0,0,0,.14-24.8l-.14-.14L466,355.27a9,9,0,0,1-1.54-10.54,190.48,190.48,0,0,0,13.88-34.2,9.9,9.9,0,0,1,8.48-6.94h30.85a15.66,15.66,0,0,0,16.46-16.46v-71C534.17,206.4,527.48,198.18,517.71,198.18Z"/><path class="cls-1" d="M510.43,0,448.1,61.45,437.75,51.11A17.54,17.54,0,0,0,413,51l-.14.14L391,73a9,9,0,0,1-10.54,1.54,180.47,180.47,0,0,0-33.17-13.88,8.9,8.9,0,0,1-5.91-8.48V21.28A19.36,19.36,0,0,0,322.82,2.51H252.11a20,20,0,0,0-18.77,19V52.39a8.56,8.56,0,0,1-5.91,8.48,188.25,188.25,0,0,0-33.17,13.88A8.61,8.61,0,0,1,184,73.22L162.4,51.37a17.54,17.54,0,0,0-24.8-.14l-.14.14L87,101.5a17.54,17.54,0,0,0-.14,24.8l.14.14,21.85,21.85a9,9,0,0,1,1.54,10.54,182.93,182.93,0,0,0-13.88,33.42A8.9,8.9,0,0,1,88,198.16H57.22c-9.77,0-16.71,8.23-16.71,18v71A15.86,15.86,0,0,0,55.74,303.6H88.07a9.54,9.54,0,0,1,8.48,6.94,195.87,195.87,0,0,0,13.88,33.94A9,9,0,0,1,108.9,355L87,376.87a17.84,17.84,0,0,0,0,25.2l6.7,6.7L0,500H37L546.46,0ZM197.2,307.36a106.17,106.17,0,0,1,147.9-145Z"/></g></g></svg>