<?xml version="1.0" encoding="utf-8"?>
<svg>
  <path d="M11.4,4.6C11.4,4.6,11.4,4.6,11.4,4.6L11.4,4.6z"/>
	<path d="M15.8,8.3C15.4,4,12,0.6,7.7,0.2C7.3,0.2,7,0.5,7,0.9l0,0.3c0,0.3,0.3,0.6,0.6,0.6c3.5,0.3,6.4,3.1,6.6,6.6	c0,0.3,0.3,0.6,0.6,0.6h0.3C15.5,9,15.8,8.7,15.8,8.3z"/>
	<path d="M7,4.1v0.4c0,0.3,0.2,0.6,0.5,0.6c1.7,0.2,3.1,1.6,3.3,3.3c0,0.3,0.3,0.5,0.6,0.5h0.4 c0.4,0,0.7-0.3,0.6-0.7c-0.3-2.5-2.3-4.5-4.8-4.8C7.3,3.4,7,3.7,7,4.1z"/>
	<path d="M8.7,11.5c0.1-0.2,0.2-0.5,0.3-0.7c0.3-0.5,1-2-0.4-3.4l0,0c0,0,0,0,0,0c0,0,0,0,0,0l0,0	C7.2,6,5.7,6.7,5.1,7C4.9,7.1,4.7,7.2,4.5,7.3C4,7.4,3.5,7.4,3.2,7.4C3,7.4,2.9,7.6,2.9,7.8c-0.2,3.4-1.9,5.4-2.5,6
		c-0.1,0.1-0.1,0.3,0,0.4l0.1,0.1c0.1,0.1,0.3,0.1,0.4,0l3.8-3.8c0.1-0.1,0.1-0.2,0.1-0.2C4.7,10,4.8,9.7,5,9.4C5.5,9,6.2,9,6.6,9.4 C7,9.8,7,10.5,6.6,11c-0.3,0.3-0.6,0.4-0.9,0.3c-0.1,0-0.2,0-0.2,0.1l-3.8,3.8c-0.1,0.1-0.1,0.3,0,0.4l0.1,0.1
		c0.1,0.1,0.3,0.1,0.4,0c0.6-0.6,2.6-2.4,6-2.5c0.2,0,0.4-0.2,0.4-0.4C8.6,12.5,8.6,12,8.7,11.5z"/>
</svg>
