<svg id="Artwork" xmlns="http://www.w3.org/2000/svg" viewBox="0 0 218.63 190.52"><title>branch-office</title><path d="M218.63,165.19V25.3a8,8,0,0,0-5.21-7.5L166.61.78a13,13,0,0,0-5.74-.72L9,15.29c-5,.5-9,4.59-9,9.15V166.91c0,4.56,4,8.63,9,9.1l55.56,5.28a6.42,6.42,0,0,0,7.17-6.5V134.15a3.44,3.44,0,0,1,3.59-3.46l22.73.84a3.82,3.82,0,0,1,3.59,3.84v42a8.2,8.2,0,0,0,7.17,8.1l52.36,5a12,12,0,0,0,5.24-.67l47.05-17.11A8,8,0,0,0,218.63,165.19ZM51.07,155.53a3.26,3.26,0,0,1-3.59,3.25l-22.73-1.61a3.81,3.81,0,0,1-3.59-3.64V132.08a3.34,3.34,0,0,1,3.59-3.25l22.73.84a3.71,3.71,0,0,1,3.59,3.64Zm0-48.44a3.48,3.48,0,0,1-3.59,3.45l-22.73-.34a3.55,3.55,0,0,1-3.59-3.44V85.31a3.57,3.57,0,0,1,3.59-3.45l22.73-.43a3.47,3.47,0,0,1,3.59,3.44Zm0-48.44a3.73,3.73,0,0,1-3.59,3.65l-22.73.94A3.32,3.32,0,0,1,21.17,60V38.55a3.83,3.83,0,0,1,3.59-3.65l22.73-1.7a3.25,3.25,0,0,1,3.59,3.24Zm50.52,49A3.59,3.59,0,0,1,98,111.29L75.28,111a3.64,3.64,0,0,1-3.59-3.64V84.56a3.68,3.68,0,0,1,3.59-3.66L98,80.47a3.57,3.57,0,0,1,3.59,3.64Zm0-51.27A3.84,3.84,0,0,1,98,60.23l-22.73.94a3.43,3.43,0,0,1-3.59-3.44V35a3.94,3.94,0,0,1,3.58-3.86L98,29.4a3.34,3.34,0,0,1,3.59,3.44Zm50.52,105.9a3.46,3.46,0,0,1-3.59,3.66l-22.73-1.61a4,4,0,0,1-3.59-4V136.22a3.53,3.53,0,0,1,3.59-3.66l22.73.84a3.93,3.93,0,0,1,3.59,4Zm0-54.09a3.7,3.7,0,0,1-3.59,3.86l-22.73-.34a3.76,3.76,0,0,1-3.59-3.85V83.8a3.78,3.78,0,0,1,3.59-3.86l22.73-.43a3.68,3.68,0,0,1,3.59,3.85Zm0-54.09a4,4,0,0,1-3.59,4.06l-22.73.94a3.52,3.52,0,0,1-3.59-3.65V31.39a4,4,0,0,1,3.59-4.06l22.73-1.7a3.44,3.44,0,0,1,3.59,3.65Z"/></svg>