<svg id="Artwork" xmlns="http://www.w3.org/2000/svg" viewBox="0 0 199.79 188.09"><title>cdot-cluster</title><path d="M23.94,34,5.42,28.4a4.2,4.2,0,0,0-5.42,4V155.67a4.2,4.2,0,0,0,5.42,4l18.53-5.6a4.2,4.2,0,0,0,3-4V38A4.2,4.2,0,0,0,23.94,34Z"/><path d="M195.53,26.66,108.24.26A6,6,0,0,0,100.5,6V182.09a6,6,0,0,0,7.74,5.74l87.29-26.4a6,6,0,0,0,4.26-5.74V32.4A6,6,0,0,0,195.53,26.66Z"/><path d="M76.65,21.13l-22.5-6.8a5.1,5.1,0,0,0-6.58,4.88V168.88a5.1,5.1,0,0,0,6.58,4.88l22.5-6.8a5.1,5.1,0,0,0,3.62-4.88V26A5.1,5.1,0,0,0,76.65,21.13Z"/></svg>