<?xml version="1.0" encoding="utf-8"?>
<!-- Generator: Adobe Illustrator 16.0.4, SVG Export Plug-In . SVG Version: 6.00 Build 0)  -->
<!DOCTYPE svg PUBLIC "-//W3C//DTD SVG 1.1//EN" "http://www.w3.org/Graphics/SVG/1.1/DTD/svg11.dtd">
<svg version="1.1" id="Layer_1" xmlns="http://www.w3.org/2000/svg" xmlns:xlink="http://www.w3.org/1999/xlink" x="0px" y="0px"
	 width="2.419px" height="3.959px" viewBox="12.789 12.02 2.419 3.959" enable-background="new 12.789 12.02 2.419 3.959"
	 xml:space="preserve">
<g>
	<path d="M12.92,13.692L12.92,13.692c0.177-0.176,0.439-0.176,0.616,0l1.54,1.54c0.176,0.177,0.176,0.439,0,0.615
		l0,0c-0.177,0.177-0.439,0.177-0.616,0l-1.54-1.54C12.745,14.131,12.745,13.868,12.92,13.692z"/>
	<path d="M12.92,14.307L12.92,14.307c0.177,0.176,0.439,0.176,0.616,0l1.54-1.54c0.176-0.176,0.176-0.439,0-0.615
		l0,0c-0.177-0.176-0.439-0.176-0.616,0l-1.54,1.54C12.745,13.868,12.745,14.131,12.92,14.307z"/>
</g>
</svg>
