<?xml version="1.0" encoding="utf-8"?>
<!-- Generator: Adobe Illustrator 16.0.4, SVG Export Plug-In . SVG Version: 6.00 Build 0)  -->
<!DOCTYPE svg PUBLIC "-//W3C//DTD SVG 1.1//EN" "http://www.w3.org/Graphics/SVG/1.1/DTD/svg11.dtd">
<svg version="1.1" id="Layer_1" xmlns="http://www.w3.org/2000/svg" xmlns:xlink="http://www.w3.org/1999/xlink" x="0px" y="0px"
	 width="2.419px" height="3.959px" viewBox="12.789 12.02 2.419 3.959" enable-background="new 12.789 12.02 2.419 3.959"
	 xml:space="preserve">
<g>
	<path d="M15.076,14.308L15.076,14.308c-0.177,0.176-0.439,0.176-0.616,0l-1.54-1.54
		c-0.176-0.176-0.176-0.439,0-0.615l0,0c0.176-0.176,0.439-0.176,0.615,0l1.54,1.54C15.252,13.869,15.252,14.131,15.076,14.308z"/>
	<path d="M15.076,13.692L15.076,13.692c-0.177-0.176-0.439-0.176-0.616,0l-1.54,1.54
		c-0.176,0.176-0.176,0.439,0,0.615l0,0c0.176,0.176,0.439,0.176,0.615,0l1.54-1.54C15.252,14.131,15.252,13.869,15.076,13.692z"/>
</g>
</svg>
