<?xml version="1.0" encoding="utf-8"?>
<!-- Generator: Adobe Illustrator 16.0.4, SVG Export Plug-In . SVG Version: 6.00 Build 0)  -->
<!DOCTYPE svg PUBLIC "-//W3C//DTD SVG 1.1//EN" "http://www.w3.org/Graphics/SVG/1.1/DTD/svg11.dtd">
<svg version="1.1" xmlns="http://www.w3.org/2000/svg" xmlns:xlink="http://www.w3.org/1999/xlink" x="0px" y="0px" width="1792px"
	 height="1792px" viewBox="0 0 1792 1792" enable-background="new 0 0 1792 1792" xml:space="preserve">
<g id="Layer_1" display="none">
	<path display="inline" stroke-miterlimit="10" d="M895.502,26.011
		c480.167,0,869.483,389.262,869.483,869.492c0,480.167-389.316,869.483-869.483,869.483
		c-480.229,0-869.492-389.316-869.492-869.483C26.011,415.273,415.273,26.011,895.502,26.011z M1384.16,549.648l-565.617,565.555
		l24.683,24.736l-153.694,153.685l-24.674-24.728l-5.733,5.841l-144.664-144.673l5.732-5.732L265.667,869.706l153.694-153.739
		l254.518,254.465l565.617-565.402L1384.16,549.648z"/>
</g>
<g id="Layer_2">
</g>
<g id="Layer_3">
	<path d="M490.653,775.491l254.519,254.465l565.616-565.402l144.664,144.619L736.15,1328.421L336.959,929.229L490.653,775.491z
		 M896.206,27C416.001,27,26.719,416.283,26.719,896.487c0,480.205,389.282,869.487,869.487,869.487
		s869.487-389.282,869.487-869.487C1765.693,416.283,1376.411,27,896.206,27z"/>
</g>
</svg>
