<svg id="Artwork" xmlns="http://www.w3.org/2000/svg" viewBox="0 0 167 173.97"><title>comparison</title><path d="M8,60.64H112a8,8,0,0,1,8,8V82.09c0,3.15,4.21,4.68,6.71,2.49L166,45.3a3.36,3.36,0,0,0,1-2.37,3.41,3.41,0,0,0-1-2.37L126.57,1C124.07-1.18,120,.43,120,3.59V15.77a8,8,0,0,1-8,8H8a8,8,0,0,0-8,8V52.64A8,8,0,0,0,8,60.64Z"/><path d="M159,113.32H55a8,8,0,0,1-8-8V91.88c0-3.15-4.21-4.68-6.71-2.49L1,128.67A3.36,3.36,0,0,0,0,131a3.41,3.41,0,0,0,1,2.37L40.43,173c2.5,2.19,6.57.58,6.57-2.58V158.2a8,8,0,0,1,8-8H159a8,8,0,0,0,8-8V121.32A8,8,0,0,0,159,113.32Z"/></svg>