<?xml version="1.0" encoding="utf-8"?>
<!-- Generated by IcoMoon.io -->
<!DOCTYPE svg PUBLIC "-//W3C//DTD SVG 1.1//EN" "http://www.w3.org/Graphics/SVG/1.1/DTD/svg11.dtd">
<svg version="1.1" xmlns="http://www.w3.org/2000/svg" xmlns:xlink="http://www.w3.org/1999/xlink" width="25" height="32" viewBox="0 0 25 32">
<path d="M10.659 21.171c-0.292-0.281-0.762-0.074-0.762 0.33v2.147c0 0.414-0.415 0.686-0.795 0.52-3.143-1.37-5.345-4.491-5.345-8.116 0-2.952 1.446-5.571 3.676-7.181 0.246-0.178 0.318-0.512 0.158-0.769l-1.386-2.218c-0.172-0.276-0.542-0.354-0.808-0.168-3.264 2.283-5.396 6.065-5.396 10.337 0 5.863 3.996 10.801 9.483 12.209 0.25 0.064 0.414 0.292 0.414 0.55v2.73c0 0.403 0.467 0.61 0.759 0.33l4.596-5.035c0.153-0.173 0.149-0.433-0.004-0.606l-4.589-5.059z"></path>
<path d="M15.743 3.839c-0.251-0.064-0.441-0.292-0.441-0.55v-2.735c0-0.403-0.457-0.61-0.748-0.33l-4.591 5.036c-0.153 0.173-0.146 0.432 0.007 0.606l4.58 5.059c0.291 0.281 0.752 0.074 0.752-0.33v-2.143c0-0.414 0.443-0.686 0.822-0.52 3.142 1.369 5.348 4.493 5.348 8.12 0 2.981-1.474 5.622-3.742 7.228-0.249 0.177-0.321 0.514-0.158 0.773l1.394 2.218c0.172 0.274 0.539 0.352 0.805 0.169 3.306-2.278 5.469-6.084 5.469-10.388 0-5.865-4.011-10.807-9.498-12.213z"></path>
<path d="M7.621 16.164c0 1.615 0.991 3.037 2.765 3.037s2.782-1.439 2.782-3.054v-0.017c0-1.615-0.991-3.037-2.765-3.037s-2.782 1.439-2.782 3.054v0.017zM9.47 16.131c0-0.803 0.389-1.339 0.916-1.339s0.933 0.552 0.933 1.355v0.017c0 0.803-0.389 1.339-0.916 1.339s-0.933-0.552-0.933-1.356v-0.017z"></path>
<path d="M16.566 13.102h-0.917c-0.040 0-0.081 0.038-0.119 0.049l-1.266 0.365c-0.236 0.065-0.376 0.314-0.317 0.552l0.152 0.607c0.059 0.235 0.287 0.383 0.523 0.332 0.28-0.060 0.537 0.156 0.537 0.442v3.225c0 0.248 0.214 0.402 0.463 0.402h0.944c0.248 0 0.442-0.154 0.442-0.402v-5.056c0-0.248-0.194-0.515-0.442-0.515z"></path>
</svg>
