<svg xmlns="http://www.w3.org/2000/svg" viewBox="0 0 128.7 110.77"><defs><style>.cls-1{fill:#bcbec0;}</style></defs><title>discussions-o</title><g id="Layer_2" data-name="Layer 2"><g id="Layer_1-2" data-name="Layer 1"><path class="cls-1" d="M128.67,34.52a51.4,51.4,0,0,0-.16-6.89,4.79,4.79,0,0,0-5-3.49H84.45c0-6.51,0-13,0-19.54A4.27,4.27,0,0,0,79.88,0C55.76,0,31.64.07,7.5,0,5.43.06,2.92-.33,1.36,1.39h0C-.37,2.92.07,5.41,0,7.47Q.07,31,0,54.59c.06,2.06-.39,4.56,1.34,6.1,2.09,2.22,5.43.83,8,1.79A4.57,4.57,0,0,1,12,66.63c.26,5.18-.06,10.37.11,15.56-.06,2.41,2.28,4.23,4.55,4.3A5.88,5.88,0,0,0,20.62,85c7.85-6.1,15.76-12.12,23.63-18.19,0,4.56,0,9.11,0,13.66,0,1.56-.1,3.4,1.19,4.55,1,1.17,2.63,1.19,4,1.21,8.62,0,17.24,0,25.85,0a7,7,0,0,1,4.9,1.37l25.24,19.55a38.67,38.67,0,0,0,4.3,3.17c2.6,1.47,6.56-.24,6.8-3.34.23-5.21-.1-10.43.11-15.64a5.3,5.3,0,0,1,1.64-4c2.57-2.22,6.64.07,9.06-2.43A4.59,4.59,0,0,0,128.69,81C128.64,65.52,128.68,50,128.67,34.52ZM48.8,24.14a4.15,4.15,0,0,0-4.51,4c-.16,7.51.14,15-.11,22.52.06,1.37-1.19,2.15-2.11,2.92-4.8,3.6-9.49,7.35-14.27,11-1.33,1.35-4,.6-4.09-1.36-.39-4,.13-8-.19-12a1.88,1.88,0,0,0-1.17-1.58c-2.71-.5-5.54.28-8.2-.49-1.63-.75-1.41-2.78-1.49-4.27.05-9.57,0-19.15,0-28.72.09-1.11,0-2.76,1.31-3.17h0a12.09,12.09,0,0,1,2.73-.27c15.5,0,31,0,46.52,0a64.41,64.41,0,0,1,6.86.11,1.92,1.92,0,0,1,1.68,2.13,38.82,38.82,0,0,1-.13,7.41c-.19,1.53-1.92,1.83-3.18,1.82C61.9,24.2,55.34,24.11,48.8,24.14Zm22.89,23A2.51,2.51,0,0,1,69,49.34c-3.08.13-6.18.12-9.27,0-1.13,0-2.49-.49-2.66-1.77a45.36,45.36,0,0,1-.14-8c0-1.13.52-2.46,1.78-2.62h0c3-.4,6-.12,9.08-.2,1.42,0,3.61,0,3.84,1.89A40.88,40.88,0,0,1,71.68,47.13Zm44.18,24.65a1.8,1.8,0,0,1-1.57,1.58c-2.49.41-5,0-7.52.23a1.63,1.63,0,0,0-1.6,1.6c-.29,4,.18,8.07-.16,12.1a2.37,2.37,0,0,1-2.73,2.27,13.7,13.7,0,0,1-2.76-1.82c-5-4-10.11-7.9-15.11-11.91-1.35-1-2.69-2.48-4.55-2.3l-18.94,0c-1.3-.09-3.2.08-3.76-1.45a27.8,27.8,0,0,1-.29-6.66c.09-1,.07-2.32,1.08-2.93A7,7,0,0,1,60.89,62c6.32,0,12.64,0,19,0a4.16,4.16,0,0,0,4.55-4c.13-6,0-12,0-18,0-1.28.32-3,1.87-3.2h0c6.62-.42,13.28,0,19.92-.17,2.77.09,5.59-.31,8.31.27,1.54.53,1.42,2.42,1.49,3.74q0,12.33,0,24.68A45.82,45.82,0,0,1,115.87,71.78Z"/></g></g></svg>