<?xml version="1.0" encoding="utf-8"?>
<!-- Generator: Adobe Illustrator 16.0.4, SVG Export Plug-In . SVG Version: 6.00 Build 0)  -->
<!DOCTYPE svg PUBLIC "-//W3C//DTD SVG 1.1//EN" "http://www.w3.org/Graphics/SVG/1.1/DTD/svg11.dtd">
<svg version="1.1" id="Layer_1" xmlns="http://www.w3.org/2000/svg" xmlns:xlink="http://www.w3.org/1999/xlink" x="0px" y="0px"
	 width="1792px" height="1792px" viewBox="0 0 1792 1792" enable-background="new 0 0 1792 1792" xml:space="preserve">
<path d="M1179.637,21.75H186.034v1748.526h1420.932V449.132L1179.637,21.75z M1479.639,1207.622h-98.295l-88.153-129.56h-72.782
	v129.56h-83.57V809.378h180.899c50.376,0,89.76,14.302,116.011,40.507c21.879,21.878,33.406,53.037,33.406,89.647v1.168
	c0,64.572-35.645,105.02-86.979,123.061L1479.639,1207.622z M1382.415,945.082v-1.071c0-38.366-27.532-58.586-71.72-58.586h-90.287
	v118.138h91.991C1356.051,1003.562,1382.415,980.086,1382.415,945.082z M944.146,1116.799H771.789l-37.138,90.823h-85.81
	l171.717-400.859h77.698l171.137,400.859h-88.049L944.146,1116.799z M858.239,907.304l-56.302,135.107h112.166L858.239,907.304z
	 M539.661,1207.622H455.51V887.076H332.993v-77.698h328.658v77.698h-121.99V1207.622z"/>
</svg>
