<?xml version="1.0" encoding="utf-8"?>
<!-- Generator: Adobe Illustrator 16.0.4, SVG Export Plug-In . SVG Version: 6.00 Build 0)  -->
<!DOCTYPE svg PUBLIC "-//W3C//DTD SVG 1.1//EN" "http://www.w3.org/Graphics/SVG/1.1/DTD/svg11.dtd">
<svg version="1.1" id="Layer_1" xmlns="http://www.w3.org/2000/svg" xmlns:xlink="http://www.w3.org/1999/xlink" x="0px" y="0px"
	 width="1792px" height="1792px" viewBox="0 0 1792 1792" enable-background="new 0 0 1792 1792" xml:space="preserve">
<path d="M184.691,1771.932V20.064h995.383l428.238,428.448v1323.42H184.691z M639.403,929.257
	c0-85.604-60.418-145.048-160.503-145.048H307.661v419.951h92.279v-126.067h69.981c94.038,0,169.481-50.361,169.481-147.611V929.257
	z M1093.455,992.877c0-118.104-90.992-208.668-222.668-208.668h-163.6v419.951h163.6c131.676,0,222.668-91.955,222.668-210.217
	V992.877z M1494.216,784.209h-319.175v419.951h92.279v-162.638h199.951v-83.94H1267.32v-89.276h226.896V784.209z M870.787,1120.754
	h-71.268V867.553h71.268c75.434,0,126.329,52.078,126.329,126.391v1.393C997.116,1069.648,946.221,1120.754,870.787,1120.754z
	 M472.967,995.974H399.94V867.553h71.321c45.978,0,74.731,22.193,74.731,63.619v1.183
	C545.993,968.276,519.049,995.974,472.967,995.974z"/>
</svg>
