<?xml version="1.0" encoding="utf-8"?>
<!-- Generator: Adobe Illustrator 16.0.4, SVG Export Plug-In . SVG Version: 6.00 Build 0)  -->
<!DOCTYPE svg PUBLIC "-//W3C//DTD SVG 1.1//EN" "http://www.w3.org/Graphics/SVG/1.1/DTD/svg11.dtd">
<svg version="1.1" id="Layer_1" xmlns="http://www.w3.org/2000/svg" xmlns:xlink="http://www.w3.org/1999/xlink" x="0px" y="0px"
	 width="1792px" height="1792px" viewBox="0 0 1792 1792" enable-background="new 0 0 1792 1792" xml:space="preserve">
<path d="M1582.891,52.384H949.397v422.227H843.815V52.384h-633.8v1689.204h1372.978V465.377L1582.891,52.384z M1271.507,1069.329
	h-73.824v128.678h-88.676V775.781h171.162c100.321,0,161.152,59.134,161.152,144.971v1.236
	C1441.321,1019.326,1365.332,1069.329,1271.507,1069.329z M1351.521,922.61c0-42.995-30.727-66.143-78.982-66.143h-74.855v133.367
	h76.612c48.145,0,77.226-28.458,77.226-66.091V922.61z M864.029,775.781h89.29v422.226h-89.29V775.781z M371.585,1130.782
	l235.446-276.633H379.165v-78.368h342.724v67.285L486.444,1119.75h235.445v78.257H371.585V1130.782z"/>
</svg>
