<?xml version="1.0" encoding="utf-8"?>
<!-- Generated by IcoMoon.io -->
<!DOCTYPE svg PUBLIC "-//W3C//DTD SVG 1.1//EN" "http://www.w3.org/Graphics/SVG/1.1/DTD/svg11.dtd">
<svg version="1.1" xmlns="http://www.w3.org/2000/svg" xmlns:xlink="http://www.w3.org/1999/xlink" width="24" height="32" viewBox="0 0 24 32">
<path d="M23.532 11.033l-10.482-10.585c-0.23-0.232-0.544-0.363-0.871-0.363h-10.953c-0.676 0-1.225 0.547-1.225 1.222v29.472c0 0.675 0.548 1.222 1.225 1.222h21.435c0.676 0 1.225-0.547 1.225-1.222v-18.887c0-0.321-0.127-0.63-0.353-0.858zM13.627 7.036c0-0.272 0.329-0.408 0.522-0.217l2.54 2.517c0.194 0.192 0.057 0.522-0.216 0.522h-2.54c-0.169 0-0.306-0.137-0.306-0.305v-2.517zM20.211 27.724c0 0.337-0.274 0.611-0.612 0.611h-15.311c-0.338 0-0.612-0.273-0.612-0.611v-23.364c0-0.337 0.274-0.611 0.612-0.611h5.206c0.338 0 0.612 0.273 0.612 0.611v8.399c0 0.337 0.274 0.611 0.612 0.611h8.88c0.338 0 0.612 0.273 0.612 0.611v13.743z"></path>
<path d="M16.383 17.080h-8.88c-0.93 0-1.684 0.757-1.684 1.684s0.754 1.684 1.684 1.684h8.88c0.93 0 1.684-0.756 1.684-1.684s-0.754-1.684-1.684-1.684z"></path>
<path d="M16.383 22.745h-8.88c-0.93 0-1.684 0.757-1.684 1.684s0.754 1.684 1.684 1.684h8.88c0.93 0 1.684-0.756 1.684-1.684s-0.754-1.684-1.684-1.684z"></path>
</svg>
