<svg xmlns="http://www.w3.org/2000/svg" viewBox="0 0 218.3 218.3"><title>file-html</title><g id="Layer_2" data-name="Layer 2"><g id="Layer_1-2" data-name="Layer 1"><g id="Art"><path d="M210.3,0H8A8,8,0,0,0,0,8V210.3a8,8,0,0,0,8,8H210.3a8,8,0,0,0,8-8V8A8,8,0,0,0,210.3,0ZM55.3,130.6a2,2,0,0,1-2,2h-9a2,2,0,0,1-2-2V116.78a2,2,0,0,0-2-2H27.6a2,2,0,0,0-2,2V130.6a2,2,0,0,1-2,2h-9a2,2,0,0,1-2-2V87.7a2,2,0,0,1,2-2h9a2,2,0,0,1,2,2v13.55a2,2,0,0,0,2,2H40.28a2,2,0,0,0,2-2V87.7a2,2,0,0,1,2-2h9a2,2,0,0,1,2,2Zm48.17-35.51a2,2,0,0,1-2,2H91.39a2,2,0,0,0-2,2V130.6a2,2,0,0,1-2,2h-9a2,2,0,0,1-2-2V99.09a2,2,0,0,0-2-2h-10a2,2,0,0,1-2-2V87.7a2,2,0,0,1,2-2h37.07a2,2,0,0,1,2,2Zm56.88,35.51a2,2,0,0,1-2,2h-8.93a2,2,0,0,1-2-2V112.39a2,2,0,0,0-3.67-1.09L135.41,124h-.27l-8.25-12.65a2,2,0,0,0-3.68,1.09V130.6a2,2,0,0,1-2,2h-8.73a2,2,0,0,1-2-2V87.7a2,2,0,0,1,2-2H123.1a2,2,0,0,1,1.7,1l8.9,14.44a2,2,0,0,0,3.41,0L146,86.65a2,2,0,0,1,1.7-1h10.62a2,2,0,0,1,2,2Zm45.36,0a2,2,0,0,1-2,2H172a2,2,0,0,1-2-2V87.7a2,2,0,0,1,2-2h9a2,2,0,0,1,2,2v31.51a2,2,0,0,0,2,2h18.7a2,2,0,0,1,2,2Z"/></g></g></g></svg>