<?xml version="1.0" encoding="utf-8"?>
<!-- Generator: Adobe Illustrator 16.0.4, SVG Export Plug-In . SVG Version: 6.00 Build 0)  -->
<!DOCTYPE svg PUBLIC "-//W3C//DTD SVG 1.1//EN" "http://www.w3.org/Graphics/SVG/1.1/DTD/svg11.dtd">
<svg version="1.1" id="Layer_1" xmlns="http://www.w3.org/2000/svg" xmlns:xlink="http://www.w3.org/1999/xlink" x="0px" y="0px"
	 width="22.033px" height="22px" viewBox="0 0 22.033 22" style="enable-background:new 0 0 22.033 22;" xml:space="preserve">
<path class="st0" d="M21.938,0.609c0.178,0.427,0.104,0.792-0.219,1.094l-7.703,7.703V21c0,0.438-0.203,0.744-0.609,0.922
	C13.272,21.975,13.141,22,13.016,22c-0.281,0-0.516-0.1-0.703-0.297l-4-4C8.115,17.505,8.016,17.271,8.016,17V9.406L0.313,1.703
	C-0.01,1.401-0.083,1.036,0.094,0.609C0.271,0.203,0.579,0,1.016,0h20C21.454,0,21.76,0.203,21.938,0.609z"/>
</svg>
