<?xml version="1.0" encoding="utf-8"?>
<!-- Generator: Adobe Illustrator 16.0.4, SVG Export Plug-In . SVG Version: 6.00 Build 0)  -->
<!DOCTYPE svg PUBLIC "-//W3C//DTD SVG 1.1//EN" "http://www.w3.org/Graphics/SVG/1.1/DTD/svg11.dtd">
<svg version="1.1" id="Layer_1" xmlns="http://www.w3.org/2000/svg" xmlns:xlink="http://www.w3.org/1999/xlink" x="0px" y="0px"
	 width="24px" height="24px" viewBox="0 0 24 24" enable-background="new 0 0 24 24" xml:space="preserve">
<g>
	<path d="M6.453,20.047l4.164-4.164l-2.5-2.5l-4.164,4.164l-2.25-2.25c-0.312-0.323-0.672-0.396-1.078-0.219
		C0.208,15.255,0,15.562,0,16v7c0,0.271,0.099,0.505,0.297,0.703C0.495,23.9,0.729,24,1,24h7c0.438,0,0.745-0.209,0.922-0.625
		c0.177-0.406,0.104-0.766-0.219-1.078L6.453,20.047z"/>
	<path d="M0.625,8.922C0.75,8.974,0.875,9,1,9c0.271,0,0.505-0.099,0.703-0.297l2.25-2.25l4.165,4.165l2.5-2.5
		L6.453,3.953l2.25-2.25c0.323-0.312,0.396-0.672,0.219-1.078C8.745,0.208,8.438,0,8,0H1C0.729,0,0.495,0.099,0.297,0.297
		S0,0.729,0,1v7C0,8.438,0.208,8.745,0.625,8.922z"/>
	<path d="M23.703,0.297C23.505,0.099,23.271,0,23,0h-7c-0.438,0-0.745,0.208-0.922,0.625
		c-0.178,0.406-0.104,0.766,0.219,1.078l2.25,2.25l-4.164,4.164l2.5,2.5l4.164-4.164l2.25,2.25C22.494,8.901,22.729,9,23,9
		c0.125,0,0.255-0.026,0.391-0.078C23.797,8.745,24,8.438,24,8V1C24,0.729,23.9,0.495,23.703,0.297z"/>
	<path d="M23.391,15.078c-0.428-0.178-0.792-0.104-1.094,0.219l-2.25,2.25l-4.164-4.164l-2.5,2.5l4.164,4.164
		l-2.25,2.25c-0.323,0.312-0.396,0.672-0.219,1.078C15.255,23.791,15.562,24,16,24h7c0.271,0,0.505-0.1,0.703-0.297
		C23.9,23.505,24,23.271,24,23v-7C24,15.562,23.797,15.255,23.391,15.078z"/>
</g>
</svg>
