<?xml version="1.0" encoding="utf-8"?>
<!-- Generator: Adobe Illustrator 19.1.0, SVG Export Plug-In . SVG Version: 6.00 Build 0)  -->
<svg version="1.1" id="Layer_1" xmlns="http://www.w3.org/2000/svg" xmlns:xlink="http://www.w3.org/1999/xlink" x="0px" y="0px"
	 viewBox="0 0 43.3 43.3" enable-background="new 0 0 43.3 43.3" xml:space="preserve">
<path d="M21.7,0C9.7,0,0,9.7,0,21.7c0,12,9.7,21.7,21.7,21.7s21.7-9.7,21.7-21.7C43.3,9.7,33.6,0,21.7,0z M29.6,6.6
	c2.6,1.4,4.9,3.4,6.5,6c0.3,0.5,0,1.2-0.7,1.2h-3.8c-0.3,0-0.6-0.2-0.7-0.5c-0.6-1.9-1.3-3.8-2.3-5.5C28.2,7,28.9,6.2,29.6,6.6z
	 M17.2,12.7c0.9-2.4,2.2-4.7,3.9-6.7c0.3-0.4,0.9-0.4,1.2,0c1.7,2.1,3,4.3,3.9,6.7c0.2,0.5-0.2,1.1-0.7,1.1h-7.5
	C17.4,13.7,17,13.2,17.2,12.7z M7.3,12.5c1.6-2.5,3.9-4.6,6.5-6c0.7-0.4,1.4,0.4,1,1.1c-1,1.8-1.7,3.6-2.3,5.5
	c-0.1,0.3-0.4,0.5-0.7,0.5H8C7.4,13.7,7,13.1,7.3,12.5z M5.7,25.4c-0.4,0-0.7-0.3-0.8-0.6c-0.2-1-0.3-2-0.3-3.1c0-1,0.1-2.1,0.3-3.1
	C5,18.3,5.3,18,5.7,18h5c0.5,0,0.8,0.4,0.8,0.9c-0.1,0.9-0.1,1.7-0.1,2.6c0,1,0.1,2,0.2,3c0.1,0.5-0.3,0.9-0.8,0.9H5.7z M14.2,37
	c-2.8-1.4-5.2-3.5-6.9-6.2c-0.3-0.5,0-1.2,0.7-1.2h4c0.3,0,0.6,0.2,0.7,0.5c0.6,2,1.5,3.9,2.5,5.7C15.6,36.5,14.9,37.3,14.2,37z
	 M26,30.7C25,32.9,23.8,35,22.3,37c-0.3,0.4-0.9,0.4-1.2,0c-1.5-2-2.8-4.1-3.7-6.3c-0.2-0.5,0.2-1.1,0.7-1.1h7.1
	C25.8,29.6,26.2,30.2,26,30.7z M26.7,25.9h-3.9v-5h-2.2v5h-3.9v-8.4h10.1V25.9z M36,30.8c-1.7,2.6-4.1,4.8-6.9,6.2
	c-0.7,0.3-1.4-0.4-1-1.1c1-1.8,1.9-3.7,2.5-5.7c0.1-0.3,0.4-0.5,0.7-0.5h4C36,29.6,36.4,30.3,36,30.8z M37.6,25.4h-5
	c-0.5,0-0.8-0.4-0.8-0.9c0.1-1,0.2-2,0.2-3c0-0.9,0-1.8-0.1-2.6c0-0.5,0.3-0.9,0.8-0.9h4.9c0.4,0,0.7,0.3,0.8,0.6
	c0.2,1,0.3,2,0.3,3.1c0,1-0.1,2.1-0.3,3.1C38.3,25.1,38,25.4,37.6,25.4z"/>
</svg>
