<?xml version="1.0" encoding="utf-8"?>
<!-- Generator: Adobe Illustrator 16.0.4, SVG Export Plug-In . SVG Version: 6.00 Build 0)  -->
<!DOCTYPE svg PUBLIC "-//W3C//DTD SVG 1.1//EN" "http://www.w3.org/Graphics/SVG/1.1/DTD/svg11.dtd">
<svg version="1.1" id="Layer_1" xmlns="http://www.w3.org/2000/svg" xmlns:xlink="http://www.w3.org/1999/xlink" x="0px" y="0px"
	 width="1792px" height="1792px" viewBox="0 0 1792 1792" enable-background="new 0 0 1792 1792" xml:space="preserve">
<path d="M1780.993,395.366h-234.485v238.479h-117.295V395.366h-234.167V276.126h234.167V37.59h117.295v238.537
	h234.485V395.366z M1118.323,1381.658c0,178.695-160.462,396.455-563.986,396.455c-295.243,0-541.33-129.709-541.33-347.254
	c0-168.337,104.672-386.532,593.504-386.532c-72.515-60.264-90.269-144.542-46.081-235.669
	c-286.171,0-432.821-171.309-432.821-388.744c0-212.635,155.552-406.009,472.697-406.009c80.013,0,507.982,0,507.982,0
	L994.877,135.031H861.39c94.209,54.931,144.172,167.745,144.172,292.382c0,114.277-61.837,206.861-150.103,276.137
	c-156.58,123.239-116.599,192.08,47.582,313.803C1064.908,1140.799,1118.323,1235.763,1118.323,1381.658z M801.393,435.184
	C777.872,252.273,660.629,102.015,523.74,97.912c-136.934-4.208-228.763,135.802-205.079,318.816
	c23.632,183.073,153.822,310.675,290.815,314.986C746.417,735.928,825.083,618.146,801.393,435.184z M942.645,1399.996
	c0-150.421-135.048-293.942-361.223-293.942c-204.11-2.159-376.927,131.218-376.927,285.742
	c0,157.984,147.293,289.417,351.299,289.417C816.558,1681.213,942.645,1557.766,942.645,1399.996z"/>
</svg>
