<svg xmlns="http://www.w3.org/2000/svg" viewBox="0 0 224.21 224.13"><defs><style>.cls-1{fill:#1e4a93;}</style></defs><title>gps</title><g id="Layer_2" data-name="Layer 2"><g id="Layer_1-2" data-name="Layer 1"><path class="cls-1" d="M212.34,61.8A112.44,112.44,0,0,0,146.86,5.46,113.51,113.51,0,0,0,97.57.88a111.29,111.29,0,0,0-37.74,12A112.11,112.11,0,0,0,43.46,200.76C62.62,215.63,86.75,224.23,111,224.1c27.38.65,54.7-9.75,75.16-27.87A112.14,112.14,0,0,0,212.34,61.8Zm-14.41,83A92.52,92.52,0,0,1,162,189.12,91.83,91.83,0,0,1,53,182.28,91.56,91.56,0,0,1,31.72,67.71C46.32,40.92,75,22.46,105.43,20.45a91.88,91.88,0,0,1,92.5,124.32Z"/><path class="cls-1" d="M162.53,55.62Q128.18,70.23,93.78,84.75c-2.83,1.25-6.48,2.1-7.5,5.45C75.87,114.85,65.34,139.45,55,164.14a3.8,3.8,0,0,0,5,5c24.7-10.32,49.33-20.86,74-31.27a6.43,6.43,0,0,0,3.88-3.93c10.41-24.7,21-49.34,31.3-74.08C170.84,55.66,165.66,53.38,162.53,55.62Zm-53.19,69.24c-7.71-1.45-12.57-10.61-9.3-17.79a13.34,13.34,0,0,1,8.43-7.53c7.92-2.61,16.92,4.14,16.67,12.45C125.5,120,117.15,126.83,109.34,124.86Z"/></g></g></svg>