<?xml version="1.0" encoding="utf-8"?>
<!-- Generator: Adobe Illustrator 16.0.4, SVG Export Plug-In . SVG Version: 6.00 Build 0)  -->
<!DOCTYPE svg PUBLIC "-//W3C//DTD SVG 1.1//EN" "http://www.w3.org/Graphics/SVG/1.1/DTD/svg11.dtd">
<svg version="1.1" id="Layer_1" xmlns="http://www.w3.org/2000/svg" xmlns:xlink="http://www.w3.org/1999/xlink" x="0px" y="0px"
	 width="1792px" height="1792px" viewBox="0 0 1792 1792" enable-background="new 0 0 1792 1792" xml:space="preserve">
<path d="M1573.305,216.223c-263.962-263.189-692.172-263.189-957.869,0
	C401.25,430.043,362.383,753.539,493.89,1006.592l-205.771,205.594L22.423,1477.869l43.067,254.977l255.546,43.258l47.282-47.472
	l249.231-248.853l179.169-179.168c253.242,123.66,566.221,82.313,778.307-129.771
	C1838.608,909.927,1838.608,482.015,1573.305,216.223z M1159.066,629.784c-82.3-82.11-82.3-215.812,0-298.316
	c82.314-82.313,216.314-82.313,298.817,0c82.3,82.503,82.3,216.206,0,298.316C1375.381,712.571,1241.381,712.571,1159.066,629.784z"
	/>
</svg>
