<?xml version="1.0" encoding="utf-8"?>
<!-- Generator: Adobe Illustrator 16.0.4, SVG Export Plug-In . SVG Version: 6.00 Build 0)  -->
<!DOCTYPE svg PUBLIC "-//W3C//DTD SVG 1.1//EN" "http://www.w3.org/Graphics/SVG/1.1/DTD/svg11.dtd">
<svg version="1.1" id="Layer_1" xmlns="http://www.w3.org/2000/svg" xmlns:xlink="http://www.w3.org/1999/xlink" x="0px" y="0px"
	 width="8.809px" height="7.391px" viewBox="9.598 10.307 8.809 7.391" enable-background="new 9.598 10.307 8.809 7.391"
	 xml:space="preserve">
<g>
	<path d="M18,12.372c-0.221,0-0.439,0.176-0.439,0.439v4.004h-7.084v-4.004c0-0.22-0.177-0.439-0.439-0.439
		c-0.219,0-0.439,0.176-0.439,0.439v4.443c0,0.133,0.043,0.22,0.133,0.31c0.086,0.087,0.176,0.134,0.309,0.134l0,0h7.918l0,0
		c0.133,0,0.22-0.044,0.31-0.134c0.087-0.087,0.134-0.177,0.134-0.31v-4.443C18.438,12.548,18.266,12.372,18,12.372z"/>
	<path d="M13.775,15.143L13.775,15.143c0.043,0.043,0.086,0.043,0.133,0.086c0,0,0,0,0.043,0
		c0.043,0,0.086,0.043,0.176,0.043l0,0l0,0c0.043,0,0.133,0,0.176-0.043c0,0,0,0,0.043,0c0.043,0,0.086-0.043,0.086-0.086l0,0
		l1.626-1.626c0.176-0.176,0.176-0.439,0-0.615s-0.439-0.176-0.615,0l-0.881,0.881v-3.037c0-0.219-0.177-0.439-0.44-0.439
		c-0.263,0-0.439,0.176-0.439,0.439v3.037l-0.881-0.881c-0.176-0.176-0.439-0.176-0.615,0s-0.176,0.439,0,0.615L13.775,15.143z"/>
</g>
</svg>
