<?xml version="1.0" encoding="utf-8"?>
<!-- Generator: Adobe Illustrator 19.1.0, SVG Export Plug-In . SVG Version: 6.00 Build 0)  -->
<svg version="1.1" id="Layer_1" xmlns="http://www.w3.org/2000/svg" xmlns:xlink="http://www.w3.org/1999/xlink" x="0px" y="0px"
	 viewBox="0 0 15 15" style="enable-background:new 0 0 15 15;" xml:space="preserve">
<style type="text/css">
	.st0{fill:#848484;}
</style>
<path class="st0" d="M2.9,2.4c0.8,0,1.5,0,2.3,0c0.1,0,0.3,0.2,0.3,0.3c0.1,0.2,0,0.4,0,0.7C6.2,2.7,7,2.3,7.9,2.1
	C10.2,1.7,12,3,12.1,5.3c0.1,2.5,0,5,0,7.5c0,0,0,0.1-0.1,0.1c-0.8,0-1.6,0-2.5,0c0-0.2,0-0.4,0-0.6c0-1.7,0-3.4,0-5.2
	c0-0.2,0-0.4,0-0.6c-0.1-1-0.6-1.7-1.4-1.8c-1-0.1-2,0.4-2.3,1.3C5.6,6.4,5.5,7,5.5,7.5c0,1.6,0,3.2,0,4.9c0,0.4-0.1,0.6-0.6,0.6
	c-0.7,0-1.3,0-2.1,0C2.9,9.4,2.9,5.9,2.9,2.4z"/>
</svg>
