<?xml version="1.0" encoding="utf-8"?>
<!-- Generator: Adobe Illustrator 16.0.4, SVG Export Plug-In . SVG Version: 6.00 Build 0)  -->
<!DOCTYPE svg PUBLIC "-//W3C//DTD SVG 1.1//EN" "http://www.w3.org/Graphics/SVG/1.1/DTD/svg11.dtd">
<svg version="1.1" id="Layer_1" xmlns="http://www.w3.org/2000/svg" xmlns:xlink="http://www.w3.org/1999/xlink" x="0px" y="0px"
	 width="1008px" height="181.536px" viewBox="0 0 1008 181.536" enable-background="new 0 0 1008 181.536" xml:space="preserve">
<polygon fill="#0067C5" points="0,0 0,147.978 69.062,147.978 69.062,59.187 108.524,59.187 108.524,147.978 177.572,147.978 
	177.572,0 "/>
<path fill="#010101" d="M256.498,0.021h29.832l68.817,91.481V0.021h31.898v147.937h-27.477l-71.159-93.403v93.411h-31.913
	L256.498,0.021L256.498,0.021z M402.564,92.348c0,34.43,24.973,58.139,58.786,58.139c20.335,0,35.446-7.979,45.908-21.004
	l-18.23-16.16c-8.81,8.199-16.571,11.562-27.265,11.562c-14.3,0-24.342-7.559-27.497-22.037h78.266
	c0.244-2.926,0.43-5.898,0.43-8.377c0-31.912-17.207-61.078-54.743-61.078c-32.749,0-55.641,26.438-55.641,58.516v0.439
	 M433.825,82.893c2.507-14.453,11.121-23.932,24.379-23.932c13.401,0,21.812,9.639,23.69,23.932H433.825z M532.87,116.042
	c0,26.027,13.216,33.793,32.694,33.793c10.707,0,18.512-2.518,25.225-6.51v-25.621c-4.632,2.559-9.87,4.041-15.766,4.041
	c-7.106,0-10.268-3.596-10.268-10.943V62.743h26.456v-27.27h-26.456V6.726h-31.888v28.748h-13.427v27.27h13.427L532.87,116.042
	 M758.748,181.536h31.866v-48.26c7.558,9.008,18.054,16.783,35.046,16.783c26.678,0,51.229-20.564,51.229-58.154v-0.4
	c0-37.566-24.962-58.117-51.229-58.117c-16.562,0-27.271,7.738-35.046,18.235V35.477h-31.866V181.536z M844.942,91.907
	c0,18.889-12.576,31.086-27.469,31.086c-14.896,0-27.271-12.402-27.271-31.086v-0.402c0-18.679,12.388-31.05,27.271-31.05
	c14.893,0,27.469,12.371,27.469,31.05V91.907 M889.854,181.536h31.895v-48.26c7.543,9.008,18.045,16.783,35.066,16.783
	c26.627,0,51.186-20.564,51.186-58.154v-0.4c0-37.566-24.961-58.117-51.186-58.117c-16.584,0-27.297,7.738-35.066,18.235V35.477
	h-31.895V181.536z M976.119,91.907c0,18.889-12.619,31.086-27.52,31.086c-14.855,0-27.271-12.402-27.271-31.086v-0.402
	c0-18.679,12.412-31.05,27.271-31.05c14.899,0,27.52,12.371,27.52,31.05V91.907 M598.954,147.963h32.938l13.438-32.975h58.239
	l13.524,32.975h33.666L689.376,0.006h-29.051L598.954,147.963z M654.919,86.504l19.534-47.701l19.513,47.701H654.919z"/>
</svg>
