<?xml version="1.0" encoding="utf-8"?>
<!-- Generator: Adobe Illustrator 16.0.4, SVG Export Plug-In . SVG Version: 6.00 Build 0)  -->
<!DOCTYPE svg PUBLIC "-//W3C//DTD SVG 1.1//EN" "http://www.w3.org/Graphics/SVG/1.1/DTD/svg11.dtd">
<svg version="1.1" id="Layer_1" xmlns="http://www.w3.org/2000/svg" xmlns:xlink="http://www.w3.org/1999/xlink" x="0px" y="0px"
	 width="1792px" height="1792px" viewBox="0 0 1792 1792" enable-background="new 0 0 1792 1792" xml:space="preserve">
<path d="M1714.432,779.782l-90.935,90.934l-545.742-545.685l-754.247,754.19l390.499,390.499l481.308-481.433
	l-117.56-117.571L804.94,1143.53l-90.934-90.935l64.309-64.309l-64.309-64.31l363.749-363.748l272.803,272.814h0.137l90.935,90.934
	l-64.31,64.31l64.31,64.309L804.94,1689.272l0,0l-90.934,90.945l-90.934-90.945l0,0l-454.819-454.808l0,0l-90.934-90.935
	l64.309-64.31l-64.309-64.309L1077.755,14.544l636.677,636.62l-64.31,64.309L1714.432,779.782z"/>
</svg>
