<svg xmlns="http://www.w3.org/2000/svg" viewBox="0 0 224.1 187.93"><defs><style>.cls-1{fill:#454545;}</style></defs><title>performance</title><g id="Layer_2" data-name="Layer 2"><g id="Artwork"><path class="cls-1" d="M110.5,0C49.9.91.5,50.51,0,111.21a111.56,111.56,0,0,0,27.1,74,8.07,8.07,0,0,0,11.7.4l9.7-9.7-.1-.1L62,162.11a6.1,6.1,0,0,0,.3-8.5,6,6,0,0,0-8.6-.1l-6.4,6.4a8,8,0,0,1-12.5-1.5,90.24,90.24,0,0,1-11.6-31.6,8,8,0,0,1,7.9-9.4h9.4a6,6,0,1,0,.2-12H31.3A8,8,0,0,1,23.4,96,89.62,89.62,0,0,1,38.6,60a7.94,7.94,0,0,1,12.1-.9l6.8,6.8a5.92,5.92,0,0,0,4.2,1.8,5.74,5.74,0,0,0,4.1-1.6,6.19,6.19,0,0,0,0-8.8l-6.6-6.6a7.87,7.87,0,0,1,1-12.1,89.18,89.18,0,0,1,36.7-15.3,8,8,0,0,1,9.3,7.9v10.5a6,6,0,1,0,12,.2V31.21a8,8,0,0,1,9.3-7.9A89,89,0,0,1,164,38.51a7.94,7.94,0,0,1,1,12.1l-6.6,6.6a6.28,6.28,0,0,0-.1,8.8,5.91,5.91,0,0,0,4.1,1.6,5.76,5.76,0,0,0,4.2-1.8l6.8-6.8a8,8,0,0,1,12.2,1.1,89.63,89.63,0,0,1,16.5,52,88.73,88.73,0,0,1-12.7,46,8.06,8.06,0,0,1-12.6,1.6l-6.3-6.3a6,6,0,1,0-8.3,8.6l13.6,13.6-.1.1,9.7,9.7a8,8,0,0,0,11.8-.5A111.66,111.66,0,0,0,224.1,112C224.3,49.71,173.2-.89,110.5,0Z"/><path class="cls-1" d="M185.5,105.51,146,99.91a8.17,8.17,0,0,1-5.9-4.1,32.31,32.31,0,1,0,.1,30.8,8,8,0,0,1,5.9-4.2l39.4-6C191.7,115.41,191.7,106.41,185.5,105.51Z"/></g></g></svg>