<svg id="Artwork" xmlns="http://www.w3.org/2000/svg" viewBox="0 0 223.52 190.25"><title>risks</title><path d="M207.14,16.49a55.69,55.69,0,0,0-61-12.19A56.46,56.46,0,0,0,128,16.66L117.9,25.91a9.29,9.29,0,0,1-12.66-.09l-9.68-9.15A56.49,56.49,0,0,0,77.37,4.29,56,56,0,0,0,0,56.3c0,7.64,1.55,18.75,4.29,25.47A64.82,64.82,0,0,0,10,92.59H57.52a4,4,0,0,0,3.66-2.39l15-34A4,4,0,0,1,83.34,56l23.89,44.71a4,4,0,0,0,7.18-.24l28-62.12a4,4,0,0,1,7.39.22L169.35,90a4,4,0,0,0,3.74,2.58h40.41a65,65,0,0,0,5.74-10.82c2.78-6.72,4.29-17.83,4.29-25.47A56.31,56.31,0,0,0,207.14,16.49Z"/><path d="M156.94,108l-8.58-22.54a4,4,0,0,0-7.39-.22l-25.18,56a4,4,0,0,1-7.18.24L84.9,97.06a4,4,0,0,0-7.19.27L72.92,108.2a4,4,0,0,1-3.66,2.39H26.48c26.15,26,65.09,63.59,79.44,77.42a8.08,8.08,0,0,0,11.15,0c14.44-13.81,53.71-51.45,80-77.44H160.68A4,4,0,0,1,156.94,108Z"/></svg>