<svg xmlns="http://www.w3.org/2000/svg" viewBox="0 0 224 177"><title>screen-bar-graph</title><g id="Layer_2" data-name="Layer 2"><g id="Artwork"><path d="M216,0H8A8,8,0,0,0,0,8V136a8,8,0,0,0,8,8H83.5a5.5,5.5,0,0,1,0,11H66a8,8,0,0,0-8,8v6a8,8,0,0,0,8,8h92a8,8,0,0,0,8-8v-6a8,8,0,0,0-8-8H140.5a5.5,5.5,0,0,1,0-11H216a8,8,0,0,0,8-8V8A8,8,0,0,0,216,0ZM202,118a4,4,0,0,1-4,4H26a4,4,0,0,1-4-4V26a4,4,0,0,1,4-4H198a4,4,0,0,1,4,4Z"/><path d="M64.8,85h-15a4,4,0,0,0-4,4v15a4,4,0,0,0,4,4h15a4,4,0,0,0,4-4V89A4,4,0,0,0,64.8,85Z"/><path d="M101.3,72h-15a4,4,0,0,0-4,4v28a4,4,0,0,0,4,4h15a4,4,0,0,0,4-4V76A4,4,0,0,0,101.3,72Z"/><path d="M137.8,56h-15a4,4,0,0,0-4,4v44a4,4,0,0,0,4,4h15a4,4,0,0,0,4-4V60A4,4,0,0,0,137.8,56Z"/><path d="M174.3,37h-15a4,4,0,0,0-4,4v63a4,4,0,0,0,4,4h15a4,4,0,0,0,4-4V41A4,4,0,0,0,174.3,37Z"/></g></g></svg>