<?xml version="1.0" encoding="utf-8"?><!DOCTYPE svg PUBLIC "-//W3C//DTD SVG 1.1//EN" "http://www.w3.org/Graphics/SVG/1.1/DTD/svg11.dtd"><svg xmlns="http://www.w3.org/2000/svg" xmlns:xlink="http://www.w3.org/1999/xlink"><symbol viewBox="0 0 438.5299987792969 438.5329895019531" id="arrow-circle-o-right"><path d="M409.133 109.203c-19.608-33.592-46.205-60.19-79.798-79.796C295.735 9.8 259.058 0 219.273 0c-39.78 0-76.47 9.8-110.063 29.407-33.595 19.604-60.192 46.2-79.8 79.796C9.8 142.8 0 179.49 0 219.267c0 39.78 9.804 76.463 29.407 110.062 19.607 33.59 46.204 60.188 79.8 79.797 33.596 19.605 70.282 29.407 110.062 29.407s76.47-9.802 110.064-29.407c33.593-19.602 60.19-46.206 79.795-79.798 19.602-33.597 29.402-70.285 29.402-110.063 0-39.782-9.8-76.472-29.4-110.064zm-55.39 188.005c-13.895 23.79-32.737 42.64-56.528 56.534-23.79 13.894-49.77 20.834-77.945 20.834-28.167 0-54.15-6.94-77.943-20.834C117.537 339.847 98.694 321 84.8 297.208c-13.897-23.79-20.843-49.772-20.843-77.94 0-28.172 6.95-54.153 20.843-77.944 13.89-23.79 32.738-42.637 56.527-56.53 23.79-13.895 49.772-20.84 77.943-20.84 28.173 0 54.154 6.945 77.945 20.84 23.79 13.894 42.634 32.74 56.527 56.53 13.895 23.79 20.838 49.772 20.838 77.943 0 28.17-6.943 54.15-20.838 77.94z"/><path d="M235.257 121.62c-2.282-1.904-4.568-2.848-6.852-2.848-2.67 0-4.853.854-6.57 2.568-1.706 1.71-2.565 3.9-2.565 6.567v54.818H118.773c-2.473 0-4.615.9-6.423 2.712-1.807 1.807-2.712 3.95-2.712 6.424v54.816c0 2.475.905 4.617 2.712 6.424 1.81 1.81 3.947 2.707 6.423 2.707h100.5v54.823c0 2.474.903 4.616 2.705 6.423 1.815 1.81 3.956 2.707 6.427 2.707 2.666 0 4.856-.852 6.564-2.563l91.363-91.36c1.715-1.712 2.57-3.902 2.57-6.566 0-2.665-.855-4.852-2.573-6.57l-91.073-91.08z"/></symbol><symbol viewBox="0 0 444.8179931640625 423.40399169921875" id="arrow-down"><path d="M434.252 185.72l-21.41-21.412c-7.418-7.042-16.083-10.564-25.974-10.564-10.095 0-18.657 3.52-25.7 10.564l-83.938 83.94V47.254c0-9.9-3.62-18.464-10.855-25.697-7.234-7.232-15.797-10.85-25.693-10.85h-36.545c-9.897 0-18.464 3.62-25.693 10.85-7.236 7.233-10.85 15.797-10.85 25.697v200.992l-83.94-83.94c-7.04-7.04-15.605-10.563-25.696-10.563-9.896 0-18.56 3.52-25.98 10.564L10.852 185.72C3.616 192.95 0 201.616 0 211.7c0 10.282 3.62 18.848 10.848 25.698l185.864 186.146c7.045 7.046 15.61 10.567 25.697 10.567 9.896 0 18.557-3.52 25.976-10.566L434.25 237.398c7.044-7.043 10.568-15.608 10.568-25.698 0-9.895-3.523-18.555-10.566-25.98z"/></symbol><symbol viewBox="0 0 1792 1792" id="arrow-left"><path d="M491.538 430.615c23.922 0 47.844 8.945 66.11 26.477 18.257 17.625 27.39 40.812 27.39 63.914 0 23.016-9.133 46.203-27.39 63.734L327.912 806.717h1362.875c51.633 0 93.406 40.445 93.406 90.305 0 49.852-41.773 90.21-93.406 90.21H327.733l229.914 222.063c36.523 35.29 36.523 92.406 0 127.648-36.344 35.242-95.695 35.242-132.03 0L36.64 961.256a89.197 89.197 0 0 1-18.992-25.977v-.095l-.188-.094c-1.094-2.14-1.82-4.382-2.734-6.757 0 0-.188 0-.188-.086v-.094-.18c-5.29-14.11-6.938-28.898-4.93-43.28v-.19-.18c.188-.18.188-.18.188-.272v-.273c.36-2.742 1.094-5.39 1.64-8.125 0-.188 0 0 .18-.367 3.837-15.344 11.876-29.398 23.563-41.18l.18-.18.187-.094c0-.093 0-.272.36-.272v-.188l.187-.18 389.523-376.102c18.257-17.527 42.18-26.473 65.92-26.473z"/></symbol><symbol viewBox="0 0 1792 1792" id="arrow-right"><path d="M1301.438 1363.375c-23.922 0-47.844-8.945-66.11-26.477-18.257-17.625-27.39-40.812-27.39-63.914 0-23.016 9.133-46.203 27.39-63.734l229.735-221.977H102.188c-51.633 0-93.406-40.445-93.406-90.305 0-49.852 41.773-90.21 93.406-90.21h1363.055L1235.33 584.694c-36.524-35.29-36.524-92.406 0-127.648 36.343-35.242 95.694-35.242 132.03 0l388.977 375.688a89.197 89.197 0 0 1 18.992 25.977v.094l.187.094c1.094 2.14 1.82 4.383 2.734 6.758 0 0 .19 0 .19.086v.274c5.288 14.11 6.937 28.898 4.93 43.28v.37c-.19.18-.19.18-.19.272v.274c-.358 2.742-1.093 5.39-1.64 8.125 0 .187 0 0-.18.366-3.836 15.344-11.875 29.398-23.562 41.18l-.18.18-.188.094c0 .094 0 .273-.36.273v.188l-.187.18-389.523 376.103c-18.258 17.527-42.18 26.472-65.922 26.472z"/></symbol><symbol viewBox="0 0 444.8170471191406 420.2600402832031" id="arrow-up"><path d="M434.252 208.708L248.387 22.843C241.345 15.8 232.694 12.28 222.41 12.28c-10.467 0-19.036 3.52-25.697 10.563L10.848 208.708C3.615 215.94 0 224.604 0 234.692c0 9.897 3.62 18.46 10.848 25.693l21.41 21.41c6.855 7.23 15.42 10.854 25.698 10.854s18.842-3.625 25.697-10.856l83.94-83.65V399.14c0 9.89 3.566 17.937 10.705 24.127 7.14 6.184 15.752 9.273 25.837 9.273h36.545c10.09 0 18.698-3.09 25.837-9.273 7.14-6.188 10.712-14.236 10.712-24.126V198.145l83.937 83.65c6.848 7.232 15.413 10.856 25.7 10.856 10.082 0 18.747-3.624 25.975-10.855l21.41-21.41c7.042-7.425 10.566-15.987 10.566-25.692 0-9.898-3.523-18.56-10.566-25.985z"/></symbol><symbol viewBox="0 0 192 193.1" id="autosupport"><defs><style>.afcls-1{fill:#454545}</style></defs><title>autosupport</title><g id="afLayer_2" data-name="Layer 2"><path class="afcls-1" d="M185.6 76.1h-12a3.42 3.42 0 0 1-3.3-2.4 74.2 74.2 0 0 0-5.4-13 3.5 3.5 0 0 1 .6-4.1l8.5-8.5a6.82 6.82 0 0 0 0-9.7l-19.5-19.5a6.82 6.82 0 0 0-9.7 0l-8.5 8.5a3.48 3.48 0 0 1-4.1.6 70.19 70.19 0 0 0-12.9-5.4 3.46 3.46 0 0 1-2.3-3.3v-12a7.53 7.53 0 0 0-7.2-7.3H82.3A7.79 7.79 0 0 0 75 7.4v12a3.33 3.33 0 0 1-2.3 3.3 73.22 73.22 0 0 0-12.9 5.4 3.35 3.35 0 0 1-4-.6L47.4 19a6.82 6.82 0 0 0-9.7 0L18.1 38.5a6.82 6.82 0 0 0 0 9.7l8.5 8.5a3.48 3.48 0 0 1 .6 4.1 71.15 71.15 0 0 0-5.4 13 3.46 3.46 0 0 1-3.3 2.3h-12c-3.8 0-6.5 3.2-6.5 7v27.6a6.17 6.17 0 0 0 6.5 6.4h12a3.71 3.71 0 0 1 3.3 2.7 76.18 76.18 0 0 0 5.4 13.2 3.48 3.48 0 0 1-.6 4.1l-8.5 8.5a6.94 6.94 0 0 0 0 9.8l19.5 19.5a6.82 6.82 0 0 0 9.7 0l8.5-8.5a3.35 3.35 0 0 1 4-.6 73.22 73.22 0 0 0 12.9 5.4 3.33 3.33 0 0 1 2.3 3.3v12c0 3.8 3.5 6.6 7.3 6.6h27.5c3.8 0 7.2-2.8 7.2-6.6v-12a3.46 3.46 0 0 1 2.3-3.3 77.52 77.52 0 0 0 13-5.4 3.35 3.35 0 0 1 4 .6l8.5 8.5a6.82 6.82 0 0 0 9.7 0l19.5-19.5a6.82 6.82 0 0 0 0-9.7l-8.5-8.5a3.48 3.48 0 0 1-.6-4.1 74.08 74.08 0 0 0 5.4-13.3 3.85 3.85 0 0 1 3.3-2.7h12a6.09 6.09 0 0 0 6.4-6.4V83.1c0-3.8-2.6-7-6.4-7zm-89.5 62.1a41.3 41.3 0 1 1 41.3-41.3 41.31 41.31 0 0 1-41.3 41.3z" id="afArtwork"/></g></symbol><symbol id="autosupport-on-demand" viewBox="0 0 224 177"><defs><style>.agcls-1{fill:#231f20}</style></defs><title>autosupport-on-demand</title><path class="agcls-1" d="M151.87 63.37h-5.34a1.5 1.5 0 0 1-1.46-1.06 34.08 34.08 0 0 0-2.41-5.79 1.52 1.52 0 0 1 .25-1.81l3.78-3.77a3.07 3.07 0 0 0 0-4.33L138 37.94a3.06 3.06 0 0 0-4.33 0l-3.78 3.78a1.53 1.53 0 0 1-1.81.26 33.88 33.88 0 0 0-5.73-2.4 1.48 1.48 0 0 1-1-1.46v-5.33a3.33 3.33 0 0 0-3.19-3.24H105.9a3.38 3.38 0 0 0-3.24 3.24v5.32a1.46 1.46 0 0 1-1 1.46A33.59 33.59 0 0 0 95.89 42a1.5 1.5 0 0 1-1.79-.26L90.35 38A3.07 3.07 0 0 0 86 38l-8.66 8.67a3.07 3.07 0 0 0 0 4.33l3.76 3.76a1.53 1.53 0 0 1 .26 1.81A34.08 34.08 0 0 0 79 62.3a1.5 1.5 0 0 1-1.46 1.06h-5.35a3 3 0 0 0-2.91 3.12v12.27a2.77 2.77 0 0 0 2.91 2.86h5.32A1.63 1.63 0 0 1 79 82.8a34.53 34.53 0 0 0 2.4 5.86 1.56 1.56 0 0 1-.26 1.83l-3.77 3.78a3.08 3.08 0 0 0 0 4.34l8.63 8.67a3.06 3.06 0 0 0 4.33 0l3.76-3.76a1.53 1.53 0 0 1 1.8-.26 33.71 33.71 0 0 0 5.73 2.41 1.46 1.46 0 0 1 1 1.46v5.34a3.13 3.13 0 0 0 3.24 3h12.26a3.08 3.08 0 0 0 3.19-3v-5.34a1.48 1.48 0 0 1 1-1.46 34.14 34.14 0 0 0 5.77-2.41 1.51 1.51 0 0 1 1.79.26l3.76 3.77a3.06 3.06 0 0 0 4.33 0l8.67-8.67a3.07 3.07 0 0 0 0-4.34l-3.78-3.77a1.53 1.53 0 0 1-.26-1.81 34.88 34.88 0 0 0 2.4-5.91 1.64 1.64 0 0 1 1.46-1.2h5.33a2.72 2.72 0 0 0 2.85-2.86V66.49a2.94 2.94 0 0 0-2.76-3.12zM112 88a15.33 15.33 0 1 1 15.33-15.33A15.33 15.33 0 0 1 112 88z"/><path class="agcls-1" d="M216 0H8a8 8 0 0 0-8 8v128a8 8 0 0 0 8 8h75.5a5.5 5.5 0 0 1 0 11H66a8 8 0 0 0-8 8v6a8 8 0 0 0 8 8h92a8 8 0 0 0 8-8v-6a8 8 0 0 0-8-8h-17.5a5.5 5.5 0 0 1 0-11H216a8 8 0 0 0 8-8V8a8 8 0 0 0-8-8zm-14 118a4 4 0 0 1-4 4H26a4 4 0 0 1-4-4V26a4 4 0 0 1 4-4h172a4 4 0 0 1 4 4z"/></symbol><symbol viewBox="0 0 546.46 500" id="autosupport-slash"><defs><style>.ahcls-1{fill:#454545}</style></defs><title>autosupport-slash</title><g id="ahLayer_2" data-name="Layer 2"><g id="ahLayer_1-2" data-name="Layer 1"><path class="ahcls-1" d="M517.71 198.18h-30.85a8.79 8.79 0 0 1-8.48-6.17 190.78 190.78 0 0 0-13.88-33.42A9 9 0 0 1 466 148l21.85-21.85a17.54 17.54 0 0 0 .14-24.8l-.14-.14-7.24-7.21-103.15 101.07a106.2 106.2 0 0 1-148.24 145.29l-103 100.91 10.93 10.93a17.54 17.54 0 0 0 24.8.14l.14-.14L184 430.35a8.61 8.61 0 0 1 10.28-1.54 188.26 188.26 0 0 0 33.17 13.88 8.56 8.56 0 0 1 5.91 8.48V482c0 9.77 9 17 18.77 17h70.71c9.77 0 18.51-7.2 18.51-17v-30.82a8.9 8.9 0 0 1 5.91-8.48 199.32 199.32 0 0 0 33.42-13.88 8.61 8.61 0 0 1 10.32 1.53l21.85 21.85a17.54 17.54 0 0 0 24.8.14l.14-.14 50.14-50.14a17.54 17.54 0 0 0 .14-24.8l-.14-.14L466 355.27a9 9 0 0 1-1.54-10.54 190.48 190.48 0 0 0 13.88-34.2 9.9 9.9 0 0 1 8.48-6.94h30.85a15.66 15.66 0 0 0 16.46-16.46v-71c.04-9.73-6.65-17.95-16.42-17.95zM510.43 0L448.1 61.45l-10.35-10.34A17.54 17.54 0 0 0 413 51l-.14.14L391 73a9 9 0 0 1-10.54 1.54 180.47 180.47 0 0 0-33.17-13.88 8.9 8.9 0 0 1-5.91-8.48v-30.9a19.36 19.36 0 0 0-18.56-18.77h-70.71a20 20 0 0 0-18.77 19v30.88a8.56 8.56 0 0 1-5.91 8.48 188.25 188.25 0 0 0-33.17 13.88A8.61 8.61 0 0 1 184 73.22l-21.6-21.85a17.54 17.54 0 0 0-24.8-.14l-.14.14L87 101.5a17.54 17.54 0 0 0-.14 24.8l.14.14 21.85 21.85a9 9 0 0 1 1.54 10.54 182.93 182.93 0 0 0-13.88 33.42 8.9 8.9 0 0 1-8.51 5.91H57.22c-9.77 0-16.71 8.23-16.71 18v71a15.86 15.86 0 0 0 15.23 16.44h32.33a9.54 9.54 0 0 1 8.48 6.94 195.87 195.87 0 0 0 13.88 33.94A9 9 0 0 1 108.9 355L87 376.87a17.84 17.84 0 0 0 0 25.2l6.7 6.7L0 500h37L546.46 0zM197.2 307.36a106.17 106.17 0 0 1 147.9-145z"/></g></g></symbol><symbol viewBox="0 0 1792 1792" id="bars"><path d="M1664 1344v128q0 26-19 45t-45 19H192q-26 0-45-19t-19-45v-128q0-26 19-45t45-19h1408q26 0 45 19t19 45zm0-512v128q0 26-19 45t-45 19H192q-26 0-45-19t-19-45V832q0-26 19-45t45-19h1408q26 0 45 19t19 45zm0-512v128q0 26-19 45t-45 19H192q-26 0-45-19t-19-45V320q0-26 19-45t45-19h1408q26 0 45 19t19 45z"/></symbol><symbol viewBox="0 0 1792 1792" id="binoculars"><path d="M704 320v768q0 26-19 45t-45 19v576q0 26-19 45t-45 19H64q-26 0-45-19t-19-45v-512l249-873q7-23 31-23h424zm320 0v704H768V320h256zm768 896v512q0 26-19 45t-45 19h-512q-26 0-45-19t-19-45v-576q-26 0-45-19t-19-45V320h424q24 0 31 23zM736 32v224H384V32q0-14 9-23t23-9h288q14 0 23 9t9 23zm672 0v224h-352V32q0-14 9-23t23-9h288q14 0 23 9t9 23z"/></symbol><symbol viewBox="0 0 15.47499942779541 15.57500171661377" id="blog"><path d="M11.4 4.6zM15.8 8.3C15.4 4 12 .6 7.7.2c-.4 0-.7.3-.7.7v.3c0 .3.3.6.6.6 3.5.3 6.4 3.1 6.6 6.6 0 .3.3.6.6.6h.3c.4 0 .7-.3.7-.7z"/><path d="M7 4.1v.4c0 .3.2.6.5.6 1.7.2 3.1 1.6 3.3 3.3 0 .3.3.5.6.5h.4c.4 0 .7-.3.6-.7-.3-2.5-2.3-4.5-4.8-4.8-.3 0-.6.3-.6.7zM8.7 11.5c.1-.2.2-.5.3-.7.3-.5 1-2-.4-3.4S5.7 6.7 5.1 7l-.6.3c-.5.1-1 .1-1.3.1-.2 0-.3.2-.3.4-.2 3.4-1.9 5.4-2.5 6-.1.1-.1.3 0 .4l.1.1c.1.1.3.1.4 0l3.8-3.8c.1-.1.1-.2.1-.2-.1-.3 0-.6.2-.9.5-.4 1.2-.4 1.6 0 .4.4.4 1.1 0 1.6-.3.3-.6.4-.9.3-.1 0-.2 0-.2.1l-3.8 3.8c-.1.1-.1.3 0 .4l.1.1c.1.1.3.1.4 0 .6-.6 2.6-2.4 6-2.5.2 0 .4-.2.4-.4 0-.3 0-.8.1-1.3z"/></symbol><symbol viewBox="0 0 475.4490966796875 438.5300598144531" id="book"><path d="M468.083 118.385c-3.99-5.33-9.61-9.42-16.854-12.275.386 6.665-.087 12.09-1.42 16.28l-85.65 281.79c-1.527 4.948-4.86 8.897-9.993 11.848-5.14 2.953-10.47 4.428-15.99 4.428H74.66c-22.84 0-36.542-6.652-41.112-19.985-1.903-5.14-1.807-9.228.288-12.274 2.092-2.857 5.708-4.288 10.85-4.288h248.102c17.702 0 29.93-3.285 36.688-9.852 6.763-6.567 13.565-21.177 20.413-43.824l78.227-258.67c4.186-14.083 2.474-26.456-5.14-37.112s-18.463-15.987-32.55-15.987H173.164c-2.474 0-7.33.854-14.562 2.568l.285-.858c-5.33-1.14-9.85-1.662-13.562-1.57-3.71.098-7.137 1.19-10.277 3.288-3.14 2.094-5.664 4.328-7.566 6.706-1.903 2.38-3.76 5.426-5.568 9.136-1.805 3.715-3.33 7.142-4.567 10.282a201.023 201.023 0 0 1-4.28 9.998c-1.62 3.52-3.187 6.423-4.71 8.706-1.144 1.523-2.76 3.52-4.855 5.996-2.09 2.474-3.805 4.664-5.137 6.567-1.33 1.904-2.19 3.617-2.568 5.14-.378 1.712-.19 4.234.57 7.567.76 3.328 1.048 5.753.855 7.277-.76 7.232-3.378 16.414-7.85 27.552-4.47 11.136-8.52 19.18-12.134 24.126-.76.95-2.853 3.092-6.28 6.424-3.427 3.33-5.52 6.23-6.28 8.704-.76.95-.81 3.617-.143 7.994.666 4.38.907 7.423.715 9.136-.765 6.473-3.14 15.037-7.14 25.697-3.998 10.657-7.993 19.414-11.992 26.265-.57 1.14-2.185 3.328-4.853 6.567-2.662 3.236-4.283 5.9-4.853 7.99-.38 1.522-.33 4.187.144 7.993.473 3.806.426 6.66-.144 8.562-1.52 7.228-4.377 15.94-8.565 26.125-4.187 10.178-8.47 18.896-12.85 26.12-1.14 1.907-2.713 4.146-4.71 6.712-1.998 2.566-3.567 4.805-4.71 6.707-1.14 1.902-1.903 3.9-2.284 5.995-.19 1.143.1 2.998.86 5.57.76 2.567 1.047 4.613.854 6.14-.192 2.663-.57 6.188-1.14 10.568-.573 4.373-.86 6.94-.86 7.7-4.187 11.423-4 23.51.572 36.268 5.33 14.84 14.797 27.36 28.406 37.542 13.61 10.185 27.74 15.27 42.398 15.27H337.9c12.368 0 24.027-4.14 34.972-12.416 10.944-8.28 18.227-18.507 21.837-30.696l78.51-258.662c4.192-13.708 2.48-25.984-5.137-36.833zm-303.773.57l5.997-18.273c.76-2.474 2.33-4.615 4.71-6.423 2.38-1.806 4.807-2.713 7.28-2.713h173.59c2.663 0 4.565.903 5.708 2.712 1.14 1.808 1.335 3.948.575 6.422l-6.002 18.274c-.764 2.475-2.327 4.61-4.713 6.424-2.382 1.805-4.805 2.708-7.278 2.708H170.593c-2.666 0-4.568-.9-5.71-2.708-1.143-1.813-1.333-3.95-.573-6.424zm-23.695 73.09l5.996-18.27c.76-2.475 2.332-4.616 4.71-6.424 2.38-1.808 4.805-2.71 7.282-2.71h173.583c2.666 0 4.572.9 5.712 2.71 1.14 1.81 1.33 3.95.568 6.424l-5.996 18.27c-.76 2.475-2.33 4.618-4.71 6.424-2.382 1.81-4.804 2.712-7.282 2.712H146.895c-2.664 0-4.567-.9-5.708-2.712-1.144-1.806-1.333-3.95-.572-6.423z"/></symbol><symbol viewBox="0 0 218.63 190.52" id="branch-office"><title>branch-office</title><path d="M218.63 165.19V25.3a8 8 0 0 0-5.21-7.5L166.61.78a13 13 0 0 0-5.74-.72L9 15.29c-5 .5-9 4.59-9 9.15v142.47c0 4.56 4 8.63 9 9.1l55.56 5.28a6.42 6.42 0 0 0 7.17-6.5v-40.64a3.44 3.44 0 0 1 3.59-3.46l22.73.84a3.82 3.82 0 0 1 3.59 3.84v42a8.2 8.2 0 0 0 7.17 8.1l52.36 5a12 12 0 0 0 5.24-.67l47.05-17.11a8 8 0 0 0 5.17-7.5zm-167.56-9.66a3.26 3.26 0 0 1-3.59 3.25l-22.73-1.61a3.81 3.81 0 0 1-3.59-3.64v-21.45a3.34 3.34 0 0 1 3.59-3.25l22.73.84a3.71 3.71 0 0 1 3.59 3.64zm0-48.44a3.48 3.48 0 0 1-3.59 3.45l-22.73-.34a3.55 3.55 0 0 1-3.59-3.44V85.31a3.57 3.57 0 0 1 3.59-3.45l22.73-.43a3.47 3.47 0 0 1 3.59 3.44zm0-48.44a3.73 3.73 0 0 1-3.59 3.65l-22.73.94A3.32 3.32 0 0 1 21.17 60V38.55a3.83 3.83 0 0 1 3.59-3.65l22.73-1.7a3.25 3.25 0 0 1 3.59 3.24zm50.52 49a3.59 3.59 0 0 1-3.59 3.64L75.28 111a3.64 3.64 0 0 1-3.59-3.64v-22.8a3.68 3.68 0 0 1 3.59-3.66L98 80.47a3.57 3.57 0 0 1 3.59 3.64zm0-51.27A3.84 3.84 0 0 1 98 60.23l-22.73.94a3.43 3.43 0 0 1-3.59-3.44V35a3.94 3.94 0 0 1 3.58-3.86L98 29.4a3.34 3.34 0 0 1 3.59 3.44zm50.52 105.9a3.46 3.46 0 0 1-3.59 3.66l-22.73-1.61a4 4 0 0 1-3.59-4v-24.11a3.53 3.53 0 0 1 3.59-3.66l22.73.84a3.93 3.93 0 0 1 3.59 4zm0-54.09a3.7 3.7 0 0 1-3.59 3.86l-22.73-.34a3.76 3.76 0 0 1-3.59-3.85V83.8a3.78 3.78 0 0 1 3.59-3.86l22.73-.43a3.68 3.68 0 0 1 3.59 3.85zm0-54.09a4 4 0 0 1-3.59 4.06l-22.73.94a3.52 3.52 0 0 1-3.59-3.65V31.39a4 4 0 0 1 3.59-4.06l22.73-1.7a3.44 3.44 0 0 1 3.59 3.65z"/></symbol><symbol viewBox="0 0 475.08197021484375 511.635986328125" id="calendar"><path d="M482.513 83.942c-7.225-7.233-15.797-10.85-25.694-10.85h-36.542v-27.41c0-12.56-4.477-23.315-13.422-32.26C397.906 4.474 387.156 0 374.59 0h-18.267c-12.565 0-23.318 4.475-32.264 13.422-8.95 8.945-13.423 19.7-13.423 32.26v27.41h-109.63v-27.41c0-12.56-4.475-23.314-13.422-32.26C178.64 4.475 167.885 0 155.32 0h-18.27c-12.562 0-23.317 4.475-32.264 13.422-8.945 8.945-13.42 19.7-13.42 32.26v27.41H54.822c-9.9 0-18.464 3.618-25.697 10.85-7.233 7.233-10.85 15.8-10.85 25.698v365.453c0 9.89 3.617 18.456 10.85 25.693 7.232 7.23 15.796 10.85 25.697 10.85h401.99c9.896 0 18.47-3.618 25.693-10.85 7.234-7.234 10.852-15.804 10.852-25.693V109.64c0-9.9-3.615-18.465-10.845-25.698zM137.047 475.088H54.823v-82.23h82.224v82.23zm0-100.498H54.823v-91.358h82.224v91.358zm0-109.64H54.823V182.73h82.224v82.223zm-6.42-130.617c-1.81-1.81-2.712-3.946-2.712-6.423V45.686c0-2.474.903-4.617 2.712-6.423 1.81-1.81 3.946-2.712 6.423-2.712h18.27c2.475 0 4.618.904 6.424 2.713 1.81 1.807 2.714 3.95 2.714 6.423v82.224c0 2.478-.91 4.615-2.714 6.423-1.807 1.81-3.946 2.712-6.423 2.712h-18.27c-2.474 0-4.614-.903-6.423-2.712zm116.056 340.755h-91.365v-82.23h91.365v82.23zm0-100.498h-91.365v-91.358h91.365v91.358zm0-109.64h-91.365V182.73h91.365v82.223zm109.64 210.138H264.96v-82.23h91.363v82.23zm0-100.498H264.96v-91.358h91.363v91.358zm0-109.64H264.96V182.73h91.363v82.223zm-6.427-130.617c-1.807-1.81-2.707-3.946-2.707-6.423V45.686c0-2.474.9-4.617 2.706-6.423 1.808-1.81 3.95-2.712 6.427-2.712h18.268c2.48 0 4.618.904 6.428 2.713 1.808 1.807 2.707 3.95 2.707 6.423v82.224c0 2.478-.903 4.615-2.707 6.423-1.807 1.81-3.95 2.712-6.427 2.712h-18.267c-2.477 0-4.626-.903-6.427-2.712zm106.916 340.755h-82.228v-82.23h82.228v82.23zm0-100.498h-82.228v-91.358h82.228v91.358zm0-109.64h-82.228V182.73h82.228v82.223z"/></symbol><symbol viewBox="0 0 1792 1792" id="camera"><path d="M22.447 458.724h1166.07v874.553H22.447zM1188.518 750.24h583.035v291.52h-583.035z"/><path d="M1480.035 604.482h291.518v583.035h-291.518z"/><path d="M1625.794 458.724h145.76v874.553h-145.76z"/></symbol><symbol viewBox="0 0 199.79 188.09" id="cdot-cluster"><title>cdot-cluster</title><path d="M23.94 34L5.42 28.4a4.2 4.2 0 0 0-5.42 4v123.27a4.2 4.2 0 0 0 5.42 4l18.53-5.6a4.2 4.2 0 0 0 3-4V38a4.2 4.2 0 0 0-3.01-4zM195.53 26.66L108.24.26A6 6 0 0 0 100.5 6v176.09a6 6 0 0 0 7.74 5.74l87.29-26.4a6 6 0 0 0 4.26-5.74V32.4a6 6 0 0 0-4.26-5.74zM76.65 21.13l-22.5-6.8a5.1 5.1 0 0 0-6.58 4.88v149.67a5.1 5.1 0 0 0 6.58 4.88l22.5-6.8a5.1 5.1 0 0 0 3.62-4.88V26a5.1 5.1 0 0 0-3.62-4.87z"/></symbol><symbol viewBox="0 0 1792 1792" id="check"><path d="M.163 796.224c206 41.95 483.433 104.1 684.055 231.82 235.485-308.795 646.098-603.74 1106.48-841.02-437.25 421.61-806.89 905.94-1052.313 1386.928C540.613 1299.206 332.415 1062.255.163 796.224z"/></symbol><symbol viewBox="0 0 444.8179931640625 280.36798095703125" id="chevron-down"><path d="M434.252 114.203l-21.41-21.416c-7.418-7.04-16.083-10.56-25.974-10.56-10.095 0-18.657 3.52-25.7 10.56L222.41 231.55 83.653 92.79c-7.042-7.04-15.606-10.56-25.697-10.56-9.896 0-18.56 3.52-25.98 10.56L10.85 114.208C3.614 121.437 0 130.1 0 140.187c0 10.278 3.62 18.843 10.848 25.694l185.864 185.866c6.855 7.23 15.416 10.848 25.697 10.848 10.087 0 18.75-3.617 25.976-10.848L434.25 165.88c7.044-7.043 10.568-15.607 10.568-25.692 0-9.9-3.523-18.56-10.566-25.985z"/></symbol><symbol viewBox="12.789 12.02 2.419 3.959" id="chevron-left"><path d="M12.92 13.692a.425.425 0 0 1 .616 0l1.54 1.54a.424.424 0 0 1 0 .615.424.424 0 0 1-.616 0l-1.54-1.54a.426.426 0 0 1 0-.615z"/><path d="M12.92 14.307c.177.176.44.176.616 0l1.54-1.54a.424.424 0 0 0 0-.615.425.425 0 0 0-.616 0l-1.54 1.54a.426.426 0 0 0 0 .615z"/></symbol><symbol viewBox="12.789 12.02 2.419 3.959" id="chevron-right"><path d="M15.076 14.308a.425.425 0 0 1-.616 0l-1.54-1.54a.424.424 0 0 1 0-.615.424.424 0 0 1 .615 0l1.54 1.54a.423.423 0 0 1 0 .615z"/><path d="M15.076 13.692a.425.425 0 0 0-.616 0l-1.54 1.54a.424.424 0 0 0 0 .615c.176.176.44.176.615 0l1.54-1.54a.423.423 0 0 0 0-.615z"/></symbol><symbol viewBox="12.021 12.791 3.96 2.419" id="chevron-up"><path d="M14.308 12.922a.425.425 0 0 1 0 .616l-1.54 1.54a.424.424 0 0 1-.615 0 .424.424 0 0 1 0-.616l1.54-1.54a.426.426 0 0 1 .615 0z"/><path d="M13.693 12.922a.425.425 0 0 0 0 .616l1.54 1.54c.177.176.44.176.616 0a.425.425 0 0 0 0-.616l-1.542-1.54a.426.426 0 0 0-.615 0z"/></symbol><symbol viewBox="0 0 1792 1792" id="circle"><path d="M897.005 5.12c492.07 0 890.872 398.8 890.872 890.885 0 492.07-398.802 890.872-890.872 890.872-491.997 0-890.886-398.802-890.886-890.872C6.12 403.92 405.007 5.12 897.004 5.12z"/></symbol><symbol viewBox="0 0 1792 1792" id="circle-check"><path d="M1602.837 379.763c-353.59 365.762-652.098 772.407-858.325 1176.58-188.008-261.18-385.926-486.433-701.775-739.33 195.83 39.878 459.565 98.96 650.282 220.375 193.032-253.125 509.855-496.46 874.054-703.3-160.996-192.315-402.845-314.63-673.27-314.63-484.718 0-877.66 392.94-877.66 877.66s392.942 877.66 877.66 877.66 877.66-392.943 877.66-877.66c0-193.453-62.594-372.285-168.627-517.355z"/></symbol><symbol viewBox="0 0 1792 1792" id="circle-check-alt"><path d="M490.653 775.49l254.52 254.466 565.615-565.402 144.664 144.62L736.15 1328.42 336.96 929.23l153.693-153.74zM896.206 27C416 27 26.72 416.283 26.72 896.487c0 480.205 389.28 869.487 869.486 869.487s869.487-389.282 869.487-869.487C1765.693 416.283 1376.41 27 896.206 27z"/></symbol><symbol viewBox="0 0 1792 1792" id="circle-exclamation"><path d="M895.5 15.564c-485.976 0-879.936 393.96-879.936 879.936 0 485.975 393.96 879.936 879.936 879.936 485.975 0 879.936-393.96 879.936-879.936 0-485.976-393.96-879.936-879.936-879.936zm109.992 1429.896H785.508v-329.976h219.984v329.976zm0-439.968H785.508V345.54h219.984v659.952z"/></symbol><symbol viewBox="0 0 1792 1792" id="circle-info"><path d="M895.5 1775.436c485.975 0 879.936-393.96 879.936-879.936 0-485.975-393.96-879.936-879.936-879.936-485.975 0-879.936 393.96-879.936 879.936 0 485.975 393.96 879.936 879.936 879.936zM785.507 435.54h219.985v239.976H785.506V435.54zm0 349.967h219.984v609.952H785.508V785.506z"/></symbol><symbol viewBox="0 0 1792 1792" id="circle-minus"><path d="M1775.88 896c0 485.945-393.935 879.88-879.88 879.88-485.944 0-879.88-393.935-879.88-879.88C16.12 410.056 410.056 16.12 896 16.12c485.945 0 879.88 393.936 879.88 879.88zm-377.09-125.697H393.21v251.395h1005.58V770.303z"/></symbol><symbol viewBox="0 0 896 1024" id="clipboard"><path d="M128 768h256v64H128v-64zm320-384H128v64h320v-64zm128 192V448L384 640l192 192V704h320V576H576zm-288-64H128v64h160v-64zM128 704h160v-64H128v64zm576 64h64v128c-1 18-7 33-19 45s-27 18-45 19H64c-35 0-64-29-64-64V192c0-35 29-64 64-64h192C256 57 313 0 384 0s128 57 128 128h192c35 0 64 29 64 64v320h-64V320H64v576h640V768zM128 256h512c0-35-29-64-64-64h-64c-35 0-64-29-64-64s-29-64-64-64-64 29-64 64-29 64-64 64h-64c-35 0-64 29-64 64z"/></symbol><symbol viewBox="0 0 1792 1792" id="close"><path d="M1786.27 1598.96l-187.667 187.464-701.462-701.47-701.057 701.47L8.423 1598.96l701.46-701.67L8.424 195.93 196.082 8.265 897.14 709.628 1598.604 8.264 1786.27 195.93 1084.8 897.29l701.47 701.67z"/></symbol><symbol viewBox="0 0 511.626953125 438.6102600097656" id="comment"><path d="M477.37 127.44c-22.842-28.074-53.87-50.25-93.075-66.523-39.204-16.272-82.035-24.41-128.478-24.41-34.643 0-67.762 4.805-99.357 14.417-31.595 9.61-58.812 22.602-81.653 38.97-22.845 16.37-41.018 35.832-54.534 58.385C6.757 170.832 0 194.483 0 219.227c0 28.55 8.61 55.3 25.837 80.234 17.227 24.93 40.778 45.87 70.664 62.81-2.095 7.612-4.57 14.847-7.425 21.694-2.855 6.852-5.424 12.474-7.708 16.85-2.286 4.378-5.376 9.234-9.28 14.563-3.9 5.327-6.85 9.088-8.85 11.274-1.996 2.19-5.28 5.812-9.85 10.85-4.565 5.047-7.517 8.328-8.848 9.854-.194.09-.954.952-2.286 2.567-1.33 1.615-2 2.423-2 2.423l-1.712 2.566c-.953 1.43-1.38 2.334-1.287 2.707.096.374-.094 1.332-.57 2.852-.477 1.526-.428 2.67.142 3.433v.284c.765 3.428 2.43 6.186 4.998 8.276 2.568 2.092 5.474 2.95 8.708 2.563 12.375-1.523 23.223-3.607 32.548-6.277 49.87-12.758 93.65-35.782 131.335-69.097 14.272 1.522 28.072 2.286 41.396 2.286 46.443 0 89.272-8.138 128.48-24.417 39.208-16.272 70.233-38.448 93.072-66.517 22.843-28.062 34.263-58.663 34.263-91.78 0-33.12-11.418-63.72-34.254-91.788z"/></symbol><symbol viewBox="0 0 511.6259765625 402.0195617675781" id="comments"><path d="M301.927 327.605c30.926-13.038 55.34-30.785 73.23-53.248 17.888-22.458 26.833-46.915 26.833-73.372 0-26.458-8.945-50.917-26.84-73.376-17.888-22.46-42.298-40.21-73.228-53.25-30.93-13.04-64.57-19.556-100.928-19.556-36.354 0-69.995 6.52-100.927 19.556-30.93 13.04-55.34 30.79-73.23 53.25C8.948 150.07 0 174.526 0 200.985c0 22.648 6.767 43.975 20.28 63.96 13.512 19.98 32.07 36.83 55.67 50.53-1.9 4.573-3.852 8.755-5.85 12.567a72.375 72.375 0 0 1-7.14 10.99 984.53 984.53 0 0 0-6.423 8.276c-1.523 1.997-3.997 4.81-7.425 8.42-3.427 3.618-5.617 5.997-6.567 7.136 0-.19-.38.24-1.143 1.287s-1.19 1.52-1.285 1.43c-.096-.102-.477.374-1.143 1.42-.666 1.05-1 1.572-1 1.572l-.715 1.423a6.114 6.114 0 0 0-.57 1.712c-.097.567-.145 1.19-.145 1.854s.094 1.28.288 1.854c.38 2.47 1.475 4.466 3.283 5.996 1.807 1.52 3.756 2.28 5.852 2.28h.857c9.515-1.333 17.7-2.855 24.552-4.57 29.312-7.61 55.77-19.797 79.372-36.545 17.128 3.045 33.878 4.567 50.246 4.567 36.357.013 70.002-6.502 100.93-19.542z"/><path d="M491.354 338.166c13.518-19.89 20.272-41.247 20.272-64.09 0-23.414-7.146-45.316-21.416-65.68-14.277-20.362-33.694-37.305-58.245-50.82 4.374 14.275 6.563 28.74 6.563 43.4 0 25.502-6.368 49.675-19.13 72.518-12.75 22.836-31.024 43.01-54.815 60.524-22.08 15.988-47.205 28.26-75.377 36.83-28.164 8.56-57.573 12.847-88.218 12.847-5.708 0-14.084-.377-25.122-1.137 38.256 25.12 83.177 37.685 134.756 37.685 16.37 0 33.12-1.526 50.25-4.57 23.6 16.754 50.06 28.93 79.37 36.548 6.853 1.72 15.038 3.238 24.555 4.57 2.283.19 4.38-.477 6.283-2 1.903-1.522 3.142-3.61 3.71-6.272-.09-1.143 0-1.77.287-1.86.28-.09.233-.713-.144-1.853-.376-1.144-.568-1.715-.568-1.715l-.712-1.424a13.68 13.68 0 0 0-1-1.567c-.475-.66-.854-1.144-1.142-1.428-.28-.284-.704-.763-1.28-1.424-.567-.66-.95-1.092-1.142-1.283-.95-1.143-3.14-3.52-6.564-7.14-3.43-3.612-5.9-6.42-7.422-8.417-1.523-2-3.665-4.757-6.424-8.282a72.21 72.21 0 0 1-7.14-10.99c-1.997-3.807-3.948-7.996-5.85-12.56 23.6-13.717 42.155-30.514 55.666-50.41z"/></symbol><symbol viewBox="0 0 167 173.97" id="comparison"><title>comparison</title><path d="M8 60.64h104a8 8 0 0 1 8 8v13.45c0 3.15 4.21 4.68 6.71 2.49L166 45.3a3.36 3.36 0 0 0 1-2.37 3.41 3.41 0 0 0-1-2.37L126.57 1c-2.5-2.18-6.57-.57-6.57 2.59v12.18a8 8 0 0 1-8 8H8a8 8 0 0 0-8 8v20.87a8 8 0 0 0 8 8zM159 113.32H55a8 8 0 0 1-8-8V91.88c0-3.15-4.21-4.68-6.71-2.49L1 128.67A3.36 3.36 0 0 0 0 131a3.41 3.41 0 0 0 1 2.37L40.43 173c2.5 2.19 6.57.58 6.57-2.58V158.2a8 8 0 0 1 8-8h104a8 8 0 0 0 8-8v-20.88a8 8 0 0 0-8-8z"/></symbol><symbol viewBox="0 0 25 32" id="data-management"><path d="M10.66 21.17a.448.448 0 0 0-.763.33v2.148a.564.564 0 0 1-.795.52c-3.143-1.37-5.345-4.49-5.345-8.116a8.84 8.84 0 0 1 3.676-7.18.574.574 0 0 0 .158-.77L6.206 5.884a.57.57 0 0 0-.808-.168C2.133 8 0 11.78 0 16.053c0 5.863 3.997 10.8 9.484 12.21a.56.56 0 0 1 .414.55v2.73c0 .402.467.61.76.33l4.595-5.036a.457.457 0 0 0-.004-.606l-4.59-5.058zM15.743 3.84a.582.582 0 0 1-.44-.55V.553c0-.403-.458-.61-.75-.33L9.964 5.26a.457.457 0 0 0 .007.606l4.58 5.06c.29.28.752.073.752-.33V8.45c0-.414.443-.686.822-.52 3.142 1.37 5.348 4.493 5.348 8.12a8.84 8.84 0 0 1-3.742 7.228.573.573 0 0 0-.158.773l1.394 2.218a.57.57 0 0 0 .805.17c3.307-2.278 5.47-6.084 5.47-10.388 0-5.865-4.01-10.807-9.498-12.213z"/><path d="M7.62 16.164c0 1.615.992 3.037 2.766 3.037s2.782-1.438 2.782-3.053v-.017c0-1.615-.99-3.037-2.765-3.037s-2.782 1.44-2.782 3.054v.017zm1.85-.033c0-.802.39-1.338.916-1.338s.933.552.933 1.355v.017c0 .803-.39 1.34-.917 1.34s-.933-.553-.933-1.357v-.017zM16.566 13.102h-.917c-.04 0-.082.038-.12.05l-1.266.364a.46.46 0 0 0-.317.552l.152.607c.058.235.286.383.522.332.28-.06.537.156.537.442v3.224c0 .248.213.402.462.402h.944c.248 0 .442-.154.442-.402v-5.056c0-.248-.194-.515-.442-.515z"/></symbol><symbol viewBox="0 0 128.7 110.77" id="discussions-o"><defs><style>.bhcls-1{fill:#bcbec0}</style></defs><title>discussions-o</title><g id="bhLayer_2" data-name="Layer 2"><path class="bhcls-1" d="M128.67 34.52a51.4 51.4 0 0 0-.16-6.89 4.79 4.79 0 0 0-5-3.49H84.45V4.6A4.27 4.27 0 0 0 79.88 0C55.76 0 31.64.07 7.5 0 5.43.06 2.92-.33 1.36 1.39-.37 2.92.07 5.41 0 7.47Q.07 31 0 54.59c.06 2.06-.39 4.56 1.34 6.1 2.09 2.22 5.43.83 8 1.79A4.57 4.57 0 0 1 12 66.63c.26 5.18-.06 10.37.11 15.56-.06 2.41 2.28 4.23 4.55 4.3A5.88 5.88 0 0 0 20.62 85c7.85-6.1 15.76-12.12 23.63-18.19v13.66c0 1.56-.1 3.4 1.19 4.55 1 1.17 2.63 1.19 4 1.21h25.85a7 7 0 0 1 4.9 1.37l25.24 19.55a38.67 38.67 0 0 0 4.3 3.17c2.6 1.47 6.56-.24 6.8-3.34.23-5.21-.1-10.43.11-15.64a5.3 5.3 0 0 1 1.64-4c2.57-2.22 6.64.07 9.06-2.43a4.59 4.59 0 0 0 1.35-3.91c-.05-15.48-.01-31-.02-46.48zM48.8 24.14a4.15 4.15 0 0 0-4.51 4c-.16 7.51.14 15-.11 22.52.06 1.37-1.19 2.15-2.11 2.92-4.8 3.6-9.49 7.35-14.27 11-1.33 1.35-4 .6-4.09-1.36-.39-4 .13-8-.19-12a1.88 1.88 0 0 0-1.17-1.58c-2.71-.5-5.54.28-8.2-.49-1.63-.75-1.41-2.78-1.49-4.27.05-9.57 0-19.15 0-28.72.09-1.11 0-2.76 1.31-3.17a12.09 12.09 0 0 1 2.73-.27h46.52a64.41 64.41 0 0 1 6.86.11 1.92 1.92 0 0 1 1.68 2.13 38.82 38.82 0 0 1-.13 7.41c-.19 1.53-1.92 1.83-3.18 1.82-6.55.01-13.11-.08-19.65-.05zm22.89 23a2.51 2.51 0 0 1-2.69 2.2c-3.08.13-6.18.12-9.27 0-1.13 0-2.49-.49-2.66-1.77a45.36 45.36 0 0 1-.14-8c0-1.13.52-2.46 1.78-2.62 3-.4 6-.12 9.08-.2 1.42 0 3.61 0 3.84 1.89a40.88 40.88 0 0 1 .05 8.49zm44.18 24.65a1.8 1.8 0 0 1-1.57 1.58c-2.49.41-5 0-7.52.23a1.63 1.63 0 0 0-1.6 1.6c-.29 4 .18 8.07-.16 12.1a2.37 2.37 0 0 1-2.73 2.27 13.7 13.7 0 0 1-2.76-1.82c-5-4-10.11-7.9-15.11-11.91-1.35-1-2.69-2.48-4.55-2.3H60.93c-1.3-.09-3.2.08-3.76-1.45a27.8 27.8 0 0 1-.29-6.66c.09-1 .07-2.32 1.08-2.93a7 7 0 0 1 2.93-.5h19a4.16 4.16 0 0 0 4.55-4c.13-6 0-12 0-18 0-1.28.32-3 1.87-3.2 6.62-.42 13.28 0 19.92-.17 2.77.09 5.59-.31 8.31.27 1.54.53 1.42 2.42 1.49 3.74v24.68a45.82 45.82 0 0 1-.16 6.46z" id="bhLayer_1-2" data-name="Layer 1"/></g></symbol><symbol viewBox="0 0 1792 1792" id="doc-pdf"><path d="M184.69 1771.932V20.064h995.384l428.238 428.448v1323.42H184.692zm454.713-842.675c0-85.604-60.418-145.048-160.503-145.048H307.66v419.95h92.28v-126.067h69.98c94.04 0 169.482-50.36 169.482-147.61v-1.226zm454.052 63.62c0-118.104-90.992-208.668-222.668-208.668h-163.6v419.95h163.6c131.676 0 222.668-91.955 222.668-210.217v-1.066zm400.76-208.668h-319.174v419.95h92.28v-162.638h199.95v-83.94h-199.95v-89.276h226.896V784.21zm-623.428 336.544H799.52v-253.2h71.267c75.434 0 126.33 52.077 126.33 126.39v1.393c0 74.31-50.896 125.417-126.33 125.417zm-397.82-124.78H399.94v-128.42h71.32c45.98 0 74.732 22.192 74.732 63.618v1.183c0 35.92-26.943 63.62-73.025 63.62z"/></symbol><symbol viewBox="0 0 1792 1792" id="doc-tar"><path d="M1179.637 21.75H186.034v1748.526h1420.932V449.132L1179.636 21.75zm300.002 1185.872h-98.296l-88.153-129.56h-72.78v129.56h-83.57V809.378h180.898c50.376 0 89.76 14.302 116.01 40.507 21.88 21.878 33.407 53.037 33.407 89.647v1.168c0 64.572-35.645 105.02-86.98 123.06l99.464 143.862zm-97.225-262.54v-1.07c0-38.367-27.532-58.587-71.72-58.587h-90.287v118.138h91.99c43.653 0 70.017-23.477 70.017-58.48zM944.145 1116.8H771.79l-37.14 90.822h-85.81l171.718-400.86h77.698l171.137 400.86h-88.05l-37.197-90.823zM858.24 907.303l-56.303 135.107h112.166L858.24 907.305zm-318.58 300.318h-84.15V887.076H332.993v-77.698H661.65v77.698H539.66v320.546z"/></symbol><symbol viewBox="0 0 1792 1792" id="doc-zip"><path d="M1582.89 52.384H949.398V474.61H843.815V52.385h-633.8v1689.204h1372.978V465.378l-.102-412.994zM1271.508 1069.33h-73.824v128.677h-88.676V775.78h171.162c100.32 0 161.15 59.135 161.15 144.972v1.236c0 97.338-75.988 147.34-169.813 147.34zm80.014-146.72c0-42.995-30.726-66.143-78.98-66.143h-74.856v133.367h76.612c48.145 0 77.226-28.458 77.226-66.09v-1.134zM864.03 775.78h89.29v422.227h-89.29V775.78zm-492.445 355.002L607.03 854.15H379.166v-78.37H721.89v67.286L486.443 1119.75H721.89v78.257H371.584v-67.225z"/></symbol><symbol viewBox="0 0 24 32" id="document"><path d="M23.532 11.033L13.05.448a1.227 1.227 0 0 0-.87-.363H1.225C.55.085 0 .632 0 1.307V30.78C0 31.453.55 32 1.227 32H22.66c.677 0 1.226-.546 1.226-1.22V11.89c0-.32-.127-.63-.353-.858zm-9.905-3.997c0-.272.33-.408.522-.217l2.54 2.516a.305.305 0 0 1-.217.522h-2.54a.306.306 0 0 1-.306-.305V7.036zm6.584 20.688c0 .337-.273.61-.61.61H4.287a.61.61 0 0 1-.612-.61V4.36c0-.337.274-.61.612-.61h5.206a.61.61 0 0 1 .612.61v8.4c0 .336.274.61.612.61h8.88a.61.61 0 0 1 .612.61v13.744z"/><path d="M16.383 17.08h-8.88c-.93 0-1.684.757-1.684 1.684s.753 1.684 1.683 1.684h8.88c.93 0 1.684-.756 1.684-1.684s-.754-1.684-1.684-1.684zM16.383 22.745h-8.88c-.93 0-1.684.757-1.684 1.684s.753 1.683 1.683 1.683h8.88c.93 0 1.684-.756 1.684-1.684s-.754-1.685-1.684-1.685z"/></symbol><symbol viewBox="0 0 1792 1792" id="envelope"><path d="M1236.47 911.917l537.857-580.407v1168.816l-537.856-588.41zM95.12 215.04h1585.25L881.2 1077.176 95.12 215.04zM19.673 1449.585V351.882l505.25 552.52-505.25 545.184zm860.955-153.834l254.744-274.93 508.343 556.14H103.497l521.624-562.8 255.508 281.59z"/></symbol><symbol viewBox="0 0 511.6280517578125 401.989990234375" id="envelope-o"><path d="M498.208 68.235c-8.945-8.947-19.7-13.418-32.26-13.418H45.68c-12.562 0-23.318 4.47-32.264 13.418C4.47 77.18 0 87.935 0 100.5V411.13c0 12.566 4.47 23.312 13.418 32.257 8.945 8.952 19.7 13.42 32.264 13.42h420.266c12.56 0 23.315-4.468 32.26-13.42 8.95-8.946 13.42-19.698 13.42-32.258V100.5c-.002-12.565-4.47-23.32-13.42-32.265zm-23.13 342.89c0 2.475-.903 4.616-2.714 6.424-1.81 1.81-3.95 2.705-6.42 2.705H45.68c-2.475 0-4.617-.896-6.424-2.706-1.81-1.81-2.712-3.95-2.712-6.425V191.858a167.12 167.12 0 0 0 19.7 18.843c51.012 39.21 91.553 71.375 121.627 96.5 9.708 8.187 17.608 14.562 23.698 19.13 6.09 4.572 14.322 9.186 24.694 13.847 10.373 4.668 20.13 6.99 29.265 6.99h.571c9.134 0 18.894-2.322 29.263-6.99 10.377-4.66 18.614-9.274 24.702-13.846 6.09-4.568 13.99-10.943 23.698-19.13 30.074-25.125 70.61-57.29 121.624-96.5a166.295 166.295 0 0 0 19.694-18.842v219.267zm0-303.205v3.14c0 11.23-4.42 23.745-13.27 37.543-8.852 13.798-18.42 24.792-28.692 32.974-36.74 28.936-74.897 59.1-114.495 90.506-1.14.95-4.473 3.757-9.995 8.418-5.514 4.67-9.894 8.242-13.13 10.713-3.242 2.478-7.472 5.475-12.704 8.993-5.235 3.518-10.04 6.14-14.417 7.85-4.377 1.708-8.47 2.563-12.275 2.563h-.571c-3.806 0-7.895-.856-12.275-2.563-4.377-1.71-9.185-4.333-14.417-7.85-5.23-3.52-9.467-6.517-12.703-8.994-3.234-2.47-7.614-6.044-13.132-10.712-5.52-4.66-8.854-7.466-9.995-8.417-39.59-31.406-77.75-61.57-114.487-90.506-27.98-22.076-41.97-49.106-41.97-81.083 0-2.472.904-4.615 2.713-6.42 1.81-1.81 3.95-2.715 6.424-2.715H465.95c1.52.854 2.854 1.092 3.997.714 1.143-.385 1.998.33 2.566 2.138.57 1.81 1.095 2.664 1.57 2.57.477-.096.764 1.093.86 3.57.088 2.474.136 3.72.136 3.72v3.848h-.002z"/></symbol><symbol viewBox="0 0 28 28" id="eye"><path d="M26 15q-2.375-3.687-5.953-5.516Q21 11.11 21 13q0 2.89-2.055 4.945T14 20t-4.945-2.055T7 13q0-1.89.953-3.516Q4.375 11.312 2 15q2.078 3.203 5.21 5.102T14 22t6.79-1.898T26 15zM14.75 9q0-.313-.22-.53T14 8.25q-1.953 0-3.352 1.398T9.25 13q0 .313.22.53t.53.22.53-.22.22-.53q0-1.344.953-2.297T14 9.75q.313 0 .53-.22t.22-.53zM28 15q0 .53-.313 1.078-2.188 3.594-5.883 5.758T14 24t-7.806-2.172-5.883-5.75Q0 15.53 0 15t.313-1.078q2.19-3.578 5.884-5.75T14 6t7.804 2.172 5.883 5.75Q28 14.47 28 15z"/></symbol><symbol viewBox="0 0 28 28" id="eye-slash"><path d="M8.672 20.86l1.22-2.204q-1.36-.984-2.126-2.484T7 13q0-1.89.953-3.516Q4.375 11.312 2 15q2.61 4.03 6.672 5.86zM14.75 9q0-.313-.22-.53T14 8.25q-1.953 0-3.352 1.398T9.25 13q0 .313.22.53t.53.22.53-.22.22-.53q0-1.344.953-2.297T14 9.75q.313 0 .53-.22t.22-.53zm5.672-2.984q0 .11-.016.14-1.64 2.94-4.922 8.845t-4.937 8.86l-.766 1.39q-.155.25-.437.25-.187 0-2.094-1.093Q7 24.25 7 23.97q0-.188.687-1.36-2.234-1.016-4.117-2.703T.312 16.08Q0 15.594 0 15t.312-1.077q2.39-3.672 5.938-5.797T14 6q1.39 0 2.812.267l.844-1.516q.156-.25.438-.25.078 0 .28.095t.485.242.515.29.492.288.305.18q.25.156.25.422zM21 13q0 2.172-1.234 3.96T16.5 19.53l4.375-7.843Q21 12.39 21 13zm7 2q0 .547-.313 1.078-.61 1-1.703 2.266-2.344 2.688-5.43 4.172T14 24l1.155-2.063q3.313-.28 6.133-2.14t4.71-4.798q-1.796-2.798-4.405-4.595l.984-1.75q1.484 1 2.852 2.39t2.257 2.876Q28 14.453 28 15z"/></symbol><symbol viewBox="0 0 1792 1792" id="facebook"><path d="M1343 12v264h-157q-86 0-116 36t-30 108v189h293l-39 296h-254v759H734V905H479V609h255V391q0-186 104-288.5T1115 0q147 0 228 12z"/></symbol><symbol viewBox="0 0 1792 1792" id="file-excel-o"><path d="M1596 380q28 28 48 76t20 88v1152q0 40-28 68t-68 28H224q-40 0-68-28t-28-68V96q0-40 28-68t68-28h896q40 0 88 20t76 48zm-444-244v376h376q-10-29-22-41l-313-313q-12-12-41-22zm384 1528V640h-416q-40 0-68-28t-28-68V128H256v1536h1280zm-979-234v106h281v-106h-75l103-161q5-7 10-16.5t7.5-13.5 3.5-4h2q1 4 5 10 2 4 4.5 7.5t6 8 6.5 8.5l107 161h-76v106h291v-106h-68l-192-273 195-282h67V768H956v107h74l-103 159q-4 7-10 16.5t-9 13.5l-2 3h-2q-1-4-5-10-6-11-17-23L776 875h76V768H562v107h68l189 272-194 283h-68z"/></symbol><symbol viewBox="0 0 218.3 218.3" id="file-html"><title>file-html</title><path d="M210.3 0H8a8 8 0 0 0-8 8v202.3a8 8 0 0 0 8 8h202.3a8 8 0 0 0 8-8V8a8 8 0 0 0-8-8zm-155 130.6a2 2 0 0 1-2 2h-9a2 2 0 0 1-2-2v-13.82a2 2 0 0 0-2-2H27.6a2 2 0 0 0-2 2v13.82a2 2 0 0 1-2 2h-9a2 2 0 0 1-2-2V87.7a2 2 0 0 1 2-2h9a2 2 0 0 1 2 2v13.55a2 2 0 0 0 2 2h12.68a2 2 0 0 0 2-2V87.7a2 2 0 0 1 2-2h9a2 2 0 0 1 2 2zm48.17-35.51a2 2 0 0 1-2 2H91.39a2 2 0 0 0-2 2v31.51a2 2 0 0 1-2 2h-9a2 2 0 0 1-2-2V99.09a2 2 0 0 0-2-2h-10a2 2 0 0 1-2-2V87.7a2 2 0 0 1 2-2h37.07a2 2 0 0 1 2 2zm56.88 35.51a2 2 0 0 1-2 2h-8.93a2 2 0 0 1-2-2v-18.21a2 2 0 0 0-3.67-1.09l-8.34 12.7h-.27l-8.25-12.65a2 2 0 0 0-3.68 1.09v18.16a2 2 0 0 1-2 2h-8.73a2 2 0 0 1-2-2V87.7a2 2 0 0 1 2-2h10.62a2 2 0 0 1 1.7 1l8.9 14.44a2 2 0 0 0 3.41 0L146 86.65a2 2 0 0 1 1.7-1h10.62a2 2 0 0 1 2 2zm45.36 0a2 2 0 0 1-2 2H172a2 2 0 0 1-2-2V87.7a2 2 0 0 1 2-2h9a2 2 0 0 1 2 2v31.51a2 2 0 0 0 2 2h18.7a2 2 0 0 1 2 2z" data-name="Layer 1"/></symbol><symbol viewBox="0 0 365.4420166015625 438.53302001953125" id="file-text-o"><path d="M396.283 130.188c-3.806-9.135-8.37-16.365-13.703-21.695l-89.078-89.08c-5.332-5.326-12.56-9.896-21.697-13.705C262.672 1.903 254.297 0 246.687 0H63.953C56.34 0 49.87 2.663 44.54 7.993c-5.33 5.327-7.994 11.8-7.994 19.414v383.72c0 7.616 2.664 14.088 7.994 19.416 5.33 5.325 11.8 7.99 19.414 7.99h310.633c7.61 0 14.08-2.665 19.407-7.99 5.328-5.332 7.994-11.8 7.994-19.417V155.313c.003-7.614-1.9-15.99-5.705-25.125zM255.816 38.826c5.517 1.903 9.418 4 11.704 6.28l89.366 89.366c2.28 2.286 4.374 6.186 6.276 11.706H255.816V38.826zM365.45 401.99H73.09V36.546h146.177v118.77c0 7.615 2.662 14.085 7.992 19.415 5.33 5.327 11.8 7.994 19.416 7.994H365.45V401.99z"/><path d="M319.77 292.355h-201c-2.663 0-4.853.855-6.567 2.566-1.71 1.712-2.568 3.902-2.568 6.564v18.274c0 2.67.856 4.86 2.568 6.57 1.715 1.71 3.905 2.567 6.567 2.567h201c2.663 0 4.854-.856 6.564-2.567s2.566-3.9 2.566-6.57v-18.274c0-2.662-.855-4.853-2.566-6.563-1.715-1.706-3.905-2.565-6.564-2.565zM112.202 221.83c-1.71 1.713-2.568 3.902-2.568 6.572v18.27c0 2.667.856 4.857 2.568 6.568 1.715 1.71 3.905 2.566 6.567 2.566h201c2.662 0 4.853-.855 6.563-2.566s2.566-3.9 2.566-6.567v-18.27c0-2.664-.856-4.855-2.567-6.572-1.715-1.708-3.905-2.563-6.564-2.563h-201c-2.663 0-4.853.855-6.568 2.564z"/></symbol><symbol viewBox="0 0 1536 1792" id="file-video-o"><path d="M1596 380q28 28 48 76t20 88v1152q0 40-28 68t-68 28H224q-40 0-68-28t-28-68V96q0-40 28-68t68-28h896q40 0 88 20t76 48zm-444-244v376h376q-10-29-22-41l-313-313q-12-12-41-22zm384 1528V640h-416q-40 0-68-28t-28-68V128H256v1536h1280zM896 768q52 0 90 38t38 90v384q0 52-38 90t-90 38H512q-52 0-90-38t-38-90V896q0-52 38-90t90-38h384zm492 2q20 8 20 30v576q0 22-20 30-8 2-12 2-14 0-23-9l-265-266v-90l265-266q9-9 23-9 4 0 12 2z"/></symbol><symbol viewBox="0 0 22.033 22" id="filter"><path class="bvst0" d="M21.938.61c.178.426.104.79-.22 1.093l-7.702 7.703V21c0 .438-.203.744-.61.922a1.067 1.067 0 0 1-.39.078.93.93 0 0 1-.703-.297l-4-4A.96.96 0 0 1 8.016 17V9.406L.313 1.703C-.01 1.4-.083 1.036.093.61.272.202.58 0 1.017 0h20c.438 0 .744.203.922.61z"/></symbol><symbol viewBox="0 0 1792 1792" id="folder"><path d="M1782.108 653.134v764.8c0 66.727-23.432 123.867-70.3 171.66-46.758 47.91-102.744 71.805-168.085 71.805H249.328c-65.22 0-121.385-23.895-168.083-71.806-46.922-47.793-70.36-104.934-70.36-171.66V374.92c0-66.726 23.438-123.873 70.36-171.547 46.698-47.91 102.862-71.804 168.083-71.804h340.554c65.4 0 121.445 23.894 168.262 71.805 46.81 47.675 70.19 104.822 70.19 171.548v34.864h715.39c65.34 0 121.327 23.78 168.084 71.686 46.87 47.793 70.3 104.94 70.3 171.666z"/></symbol><symbol viewBox="0 0 24 24" id="fullscreen"><path d="M6.453 20.047l4.164-4.164-2.5-2.5-4.164 4.164-2.25-2.25c-.312-.323-.672-.396-1.078-.22C.208 15.256 0 15.563 0 16v7c0 .27.1.505.297.703A.964.964 0 0 0 1 24h7c.438 0 .745-.21.922-.625.177-.406.104-.766-.22-1.078l-2.25-2.25zM.625 8.922a.97.97 0 0 0 1.078-.22l2.25-2.25 4.165 4.166 2.5-2.5-4.165-4.165 2.25-2.25c.323-.312.396-.672.22-1.078C8.744.208 8.437 0 8 0H1C.73 0 .495.1.297.297S0 .73 0 1v7c0 .438.208.745.625.922zM23.703.297A.96.96 0 0 0 23 0h-7c-.438 0-.745.208-.922.625-.178.406-.104.766.22 1.078l2.25 2.25-4.165 4.164 2.5 2.5 4.164-4.164 2.25 2.25A.96.96 0 0 0 23 9c.125 0 .255-.026.39-.078.407-.177.61-.484.61-.922V1c0-.27-.1-.505-.297-.703zM23.39 15.078c-.427-.178-.79-.104-1.093.22l-2.25 2.25-4.164-4.165-2.5 2.5 4.164 4.164-2.25 2.25c-.323.312-.396.672-.22 1.078.178.416.485.625.923.625h7c.27 0 .505-.1.703-.297A.964.964 0 0 0 24 23v-7c0-.438-.203-.745-.61-.922z"/></symbol><symbol viewBox="0 0 43.3 43.3" id="globe"><path d="M21.7 0C9.7 0 0 9.7 0 21.7s9.7 21.7 21.7 21.7 21.7-9.7 21.7-21.7C43.3 9.7 33.6 0 21.7 0zm7.9 6.6c2.6 1.4 4.9 3.4 6.5 6 .3.5 0 1.2-.7 1.2h-3.8c-.3 0-.6-.2-.7-.5-.6-1.9-1.3-3.8-2.3-5.5-.4-.8.3-1.6 1-1.2zm-12.4 6.1c.9-2.4 2.2-4.7 3.9-6.7.3-.4.9-.4 1.2 0 1.7 2.1 3 4.3 3.9 6.7.2.5-.2 1.1-.7 1.1H18c-.6-.1-1-.6-.8-1.1zm-9.9-.2c1.6-2.5 3.9-4.6 6.5-6 .7-.4 1.4.4 1 1.1-1 1.8-1.7 3.6-2.3 5.5-.1.3-.4.5-.7.5H8c-.6.1-1-.5-.7-1.1zM5.7 25.4c-.4 0-.7-.3-.8-.6-.2-1-.3-2-.3-3.1 0-1 .1-2.1.3-3.1.1-.3.4-.6.8-.6h5c.5 0 .8.4.8.9-.1.9-.1 1.7-.1 2.6 0 1 .1 2 .2 3 .1.5-.3.9-.8.9H5.7zM14.2 37c-2.8-1.4-5.2-3.5-6.9-6.2-.3-.5 0-1.2.7-1.2h4c.3 0 .6.2.7.5.6 2 1.5 3.9 2.5 5.7.4.7-.3 1.5-1 1.2zM26 30.7c-1 2.2-2.2 4.3-3.7 6.3-.3.4-.9.4-1.2 0-1.5-2-2.8-4.1-3.7-6.3-.2-.5.2-1.1.7-1.1h7.1c.6 0 1 .6.8 1.1zm.7-4.8h-3.9v-5h-2.2v5h-3.9v-8.4h10.1v8.4zm9.3 4.9c-1.7 2.6-4.1 4.8-6.9 6.2-.7.3-1.4-.4-1-1.1 1-1.8 1.9-3.7 2.5-5.7.1-.3.4-.5.7-.5h4c.7-.1 1.1.6.7 1.1zm1.6-5.4h-5c-.5 0-.8-.4-.8-.9.1-1 .2-2 .2-3 0-.9 0-1.8-.1-2.6 0-.5.3-.9.8-.9h4.9c.4 0 .7.3.8.6.2 1 .3 2 .3 3.1 0 1-.1 2.1-.3 3.1-.1.3-.4.6-.8.6z"/></symbol><symbol viewBox="0 0 1792 1792" id="google-plus"><path d="M1780.993 395.366h-234.485v238.48h-117.295v-238.48h-234.167v-119.24h234.167V37.59h117.295v238.537h234.485v119.24zm-662.67 986.292c0 178.695-160.462 396.455-563.986 396.455-295.243 0-541.33-129.71-541.33-347.254 0-168.338 104.672-386.533 593.504-386.533-72.514-60.264-90.268-144.542-46.08-235.67-286.17 0-432.82-171.308-432.82-388.743 0-212.635 155.55-406.01 472.696-406.01h507.982l-113.41 121.127H861.39c94.21 54.932 144.172 167.746 144.172 292.383 0 114.277-61.837 206.86-150.103 276.137-156.58 123.24-116.6 192.08 47.58 313.803 161.868 123.446 215.283 218.41 215.283 364.305zm-316.93-946.474c-23.52-182.91-140.764-333.17-277.653-337.272-136.934-4.208-228.763 135.802-205.08 318.816C342.294 599.8 472.484 727.403 609.477 731.714c136.94 4.214 215.607-113.568 191.917-296.53zm141.252 964.812c0-150.42-135.048-293.942-361.223-293.942-204.11-2.16-376.927 131.218-376.927 285.742 0 157.984 147.293 289.417 351.3 289.417 260.763 0 386.85-123.447 386.85-281.217z"/></symbol><symbol viewBox="0 0 224.21 224.13" id="gps"><defs><style>.cacls-1{fill:#1e4a93}</style></defs><title>gps</title><g id="caLayer_2" data-name="Layer 2"><g id="caLayer_1-2" data-name="Layer 1"><path class="cacls-1" d="M212.34 61.8a112.44 112.44 0 0 0-65.48-56.34A113.51 113.51 0 0 0 97.57.88a111.29 111.29 0 0 0-37.74 12 112.11 112.11 0 0 0-16.37 187.88c19.16 14.87 43.29 23.47 67.54 23.34 27.38.65 54.7-9.75 75.16-27.87A112.14 112.14 0 0 0 212.34 61.8zm-14.41 83A92.52 92.52 0 0 1 162 189.12a91.83 91.83 0 0 1-109-6.84A91.56 91.56 0 0 1 31.72 67.71C46.32 40.92 75 22.46 105.43 20.45a91.88 91.88 0 0 1 92.5 124.32z"/><path class="cacls-1" d="M162.53 55.62q-34.35 14.61-68.75 29.13c-2.83 1.25-6.48 2.1-7.5 5.45-10.41 24.65-20.94 49.25-31.28 73.94a3.8 3.8 0 0 0 5 5c24.7-10.32 49.33-20.86 74-31.27a6.43 6.43 0 0 0 3.88-3.93c10.41-24.7 21-49.34 31.3-74.08 1.66-4.2-3.52-6.48-6.65-4.24zm-53.19 69.24c-7.71-1.45-12.57-10.61-9.3-17.79a13.34 13.34 0 0 1 8.43-7.53c7.92-2.61 16.92 4.14 16.67 12.45.36 8.01-7.99 14.84-15.8 12.87z"/></g></g></symbol><symbol viewBox="0 0 1792 1792" id="key"><path d="M1573.305 216.223c-263.962-263.19-692.172-263.19-957.87 0-214.185 213.82-253.052 537.316-121.545 790.37l-205.77 205.593L22.422 1477.87l43.067 254.976 255.546 43.258 47.282-47.472 249.23-248.853 179.17-179.17c253.242 123.66 566.22 82.314 778.307-129.77 263.583-260.913 263.583-688.825-1.72-954.617zm-414.24 413.56c-82.3-82.11-82.3-215.81 0-298.315 82.315-82.313 216.315-82.313 298.818 0 82.3 82.503 82.3 216.206 0 298.316-82.502 82.787-216.502 82.787-298.817 0z"/></symbol><symbol viewBox="9.598 10.307 8.809 7.391" id="legend-downloadable"><path d="M18 12.372a.44.44 0 0 0-.44.44v4.003h-7.083V12.81a.44.44 0 0 0-.44-.438.44.44 0 0 0-.438.44v4.442a.4.4 0 0 0 .132.31.402.402 0 0 0 .31.134h7.917a.4.4 0 0 0 .31-.134.406.406 0 0 0 .133-.31V12.81c.035-.262-.137-.438-.403-.438z"/><path d="M13.775 15.143c.043.043.086.043.133.086h.043c.044 0 .087.042.177.042.043 0 .133 0 .176-.043h.043a.092.092 0 0 0 .086-.087l1.626-1.626c.176-.176.176-.44 0-.615s-.44-.176-.615 0l-.88.88v-3.036a.44.44 0 0 0-.44-.44c-.264 0-.44.177-.44.44v3.037l-.88-.88c-.177-.177-.44-.177-.616 0s-.176.438 0 .614l1.588 1.626z"/></symbol><symbol viewBox="0 0 1792 1792" id="legend-external-site"><path d="M1137.457 253.448V92.808H1780.012v642.555h-160.64V414.086h-160.64V253.448h-321.275zm160.64 321.276V414.086h160.637v160.638h-160.638zm-160.64 160.638V574.724h160.64v160.638h-160.64zm-481.914 955.36l-321.277-419.015v427.484H12.99V735.36h321.275v8.624l321.277 418.7V735.36h321.276v963.83H655.543v-8.47z"/></symbol><symbol viewBox="0 0 1792 1792" id="legend-support"><path d="M1780.01 574.724v160.638h-642.554V92.81h160.64v321.275h160.64v160.64h321.275zm-160.638-321.277v160.638h-160.638V253.447h160.638zm160.64-160.638v160.637h-160.64V92.81h160.64zM655.54 1690.72l-321.276-419.013v427.484H12.99V735.36h321.276v8.624l321.277 418.7V735.362H976.82v963.83H655.542v-8.47z"/></symbol><symbol viewBox="0 0 1792 1792" id="legend-vpn"><path d="M27.286 1764.714V605.762h193.16V219.445h193.158V26.285h965.793v193.16h193.158v386.317h193.16v1158.952H27.284zm1158.952-1545.27H606.762v386.318h579.476V219.445zm15.274 582.403L892.45 1322.19 596.1 801.846l-167.785 95.535 382.266 671.534 81.87-46.592 85.354 46.592 398.953-671.534-175.245-95.535z"/></symbol><symbol viewBox="0 0 1792 1792" id="legend-webapp"><path d="M23.596 1769.404V22.596h1746.81v1746.81H23.595zM1552.053 459.298H241.947v1091.755h1310.106V459.298z"/></symbol><symbol viewBox="0 0 438.5369873046875 419.1209716796875" id="linkedin"><path d="M5.424 145.895H99.64v282.932H5.424zM408.842 171.74c-19.79-21.605-45.967-32.41-78.512-32.41-11.99 0-22.89 1.476-32.695 4.428-9.8 2.95-18.08 7.09-24.838 12.42-6.755 5.33-12.135 10.277-16.13 14.843-3.797 4.338-7.51 9.39-11.135 15.105v-40.232h-93.935l.288 13.706c.193 9.138.288 37.306.288 84.507 0 47.205-.19 108.777-.572 184.722h93.932V270.94c0-9.705 1.04-17.412 3.14-23.127 4-9.712 10.036-17.843 18.13-24.407 8.093-6.572 18.13-9.855 30.125-9.855 16.364 0 28.407 5.662 36.117 16.987 7.707 11.324 11.56 26.98 11.56 46.966V428.82h93.932V266.664c-.007-41.688-9.897-73.328-29.694-94.925zM53.103 9.708c-15.796 0-28.595 4.62-38.4 13.848C4.9 32.786 0 44.44 0 58.53c0 13.89 4.758 25.504 14.275 34.828 9.514 9.325 22.078 13.99 37.685 13.99h.57c15.99 0 28.888-4.66 38.69-13.99 9.8-9.324 14.605-20.934 14.416-34.83-.19-14.086-5.047-25.74-14.56-34.972C81.56 14.323 68.9 9.708 53.102 9.708z"/></symbol><symbol id="mynewsdesk" viewBox="0 0 15 15"><style>.cist0{fill:#848484}</style><path class="cist0" d="M2.9 2.4h2.3c.1 0 .3.2.3.3.1.2 0 .4 0 .7.7-.7 1.5-1.1 2.4-1.3 2.3-.4 4.1.9 4.2 3.2.1 2.5 0 5 0 7.5 0 0 0 .1-.1.1H9.5v-.6-5.2-.6c-.1-1-.6-1.7-1.4-1.8-1-.1-2 .4-2.3 1.3-.2.4-.3 1-.3 1.5v4.9c0 .4-.1.6-.6.6H2.8c.1-3.6.1-7.1.1-10.6z"/></symbol><symbol viewBox="0 0 1008 181.536" id="netapp-logo"><path fill="#0067C5" d="M0 0v147.978h69.062v-88.79h39.462v88.79h69.048V0z"/><path fill="#010101" d="M256.498.02h29.832l68.817 91.482V.022h31.898v147.936h-27.477l-71.16-93.403v93.41h-31.912L256.498.022zM402.564 92.35c0 34.43 24.973 58.14 58.786 58.14 20.335 0 35.446-7.98 45.908-21.005l-18.23-16.16c-8.81 8.2-16.57 11.562-27.265 11.562-14.3 0-24.342-7.56-27.497-22.037h78.266c.244-2.926.43-5.898.43-8.377 0-31.91-17.207-61.077-54.743-61.077-32.75 0-55.642 26.438-55.642 58.516v.438m31.247-9.455c2.507-14.453 11.12-23.932 24.38-23.932 13.4 0 21.81 9.64 23.69 23.933h-48.07zm99.045 33.15c0 26.026 13.216 33.792 32.694 33.792 10.707 0 18.512-2.518 25.225-6.51v-25.62c-4.633 2.558-9.87 4.04-15.767 4.04-7.106 0-10.268-3.596-10.268-10.943v-48.06h26.456v-27.27h-26.455V6.727h-31.888v28.748H519.44v27.27h13.427l.003 53.298m225.878 65.494h31.866v-48.26c7.558 9.008 18.054 16.783 35.046 16.783 26.678 0 51.23-20.565 51.23-58.155v-.4c0-37.566-24.963-58.117-51.23-58.117-16.562 0-27.27 7.738-35.046 18.235V35.477h-31.866v146.06zm86.194-89.63c0 18.89-12.576 31.087-27.47 31.087-14.895 0-27.27-12.402-27.27-31.086v-.402c0-18.68 12.388-31.05 27.27-31.05 14.894 0 27.47 12.37 27.47 31.05v.402m44.912 89.63h31.895v-48.26c7.542 9.007 18.044 16.782 35.065 16.782 26.627 0 51.186-20.565 51.186-58.155v-.4c0-37.566-24.96-58.117-51.185-58.117-16.584 0-27.297 7.738-35.066 18.235V35.477h-31.896v146.06zm86.265-89.63c0 18.89-12.62 31.086-27.52 31.086-14.856 0-27.272-12.402-27.272-31.086v-.402c0-18.68 12.412-31.05 27.27-31.05 14.9 0 27.52 12.37 27.52 31.05v.402m-377.164 56.056h32.938l13.438-32.975h58.24l13.523 32.975h33.666L689.375.006h-29.05l-61.372 147.957zm55.965-61.46l19.533-47.7 19.513 47.7H654.92z"/></symbol><symbol viewBox="0 0 1792 1792" id="netapp-mark"><path d="M1100.155 1642.238v-814.62H692.85v814.62H13.99V148.758h1765.024v1493.48h-678.86z"/></symbol><symbol viewBox="0 0 1792 1792" id="paperclip"><path d="M1714.432 779.782l-90.935 90.934-545.742-545.685-754.247 754.19 390.5 390.5 481.307-481.433-117.56-117.57L804.94 1143.53l-90.934-90.935 64.31-64.31-64.31-64.31 363.75-363.747 272.802 272.814h.137l90.935 90.934-64.31 64.31 64.31 64.31-636.69 636.676-90.934 90.945-90.934-90.945-454.82-454.808-90.933-90.935 64.308-64.31-64.31-64.31L1077.756 14.544l636.677 636.62-64.31 64.31 64.31 64.308z"/></symbol><symbol viewBox="0 0 509.3370361328125 401.9989929199219" id="pencil-square-o"><path d="M396.283 310.907c-3.81-1.52-7.143-.853-9.996 1.998l-18.274 18.274c-1.71 1.707-2.573 3.805-2.573 6.275v35.978c0 12.565-4.463 23.314-13.408 32.264-8.952 8.945-19.7 13.418-32.264 13.418H82.224c-12.562 0-23.317-4.473-32.264-13.418-8.947-8.95-13.418-19.698-13.418-32.264V135.895c0-12.563 4.47-23.317 13.418-32.265 8.947-8.945 19.702-13.418 32.264-13.418H319.77c4.186 0 8.47.57 12.847 1.714 3.433 1.14 6.472.38 9.134-2.284l13.987-13.99c2.286-2.28 3.138-5.043 2.57-8.278-.57-3.044-2.286-5.234-5.14-6.565-10.28-4.753-21.413-7.14-33.404-7.14H82.223c-22.647 0-42.016 8.042-58.1 24.126C8.042 93.882 0 113.246 0 135.896V373.44c0 22.647 8.042 42.014 24.123 58.098 16.084 16.088 35.454 24.13 58.102 24.13h237.54c22.646 0 42.013-8.042 58.097-24.13 16.088-16.084 24.13-35.45 24.13-58.098v-54.245c0-4.004-1.908-6.76-5.71-8.288z"/><path d="M182.72 300.354v82.22h82.23l191.86-191.858-82.228-82.225-191.86 191.864zm70.804 54.815l-15.99-.008v-27.4h-27.406v-15.985l33.12-33.12 43.396 43.4-33.12 33.112zM378.86 159.022l-99.93 99.928c-3.234 3.242-6.376 3.335-9.42.29-3.044-3.047-2.95-6.187.286-9.42l99.93-99.93c3.234-3.238 6.37-3.332 9.422-.286s2.943 6.185-.287 9.42zM501.346 107.348L457.95 63.952c-5.328-5.33-11.796-7.995-19.413-7.995-7.615 0-14.086 2.665-19.41 7.995l-26.27 26.263 82.228 82.23 26.262-26.27c5.328-5.326 7.99-11.8 7.99-19.413s-2.663-14.084-7.99-19.414z"/></symbol><symbol viewBox="0 0 224.1 187.93" id="performance"><defs><style>.cncls-1{fill:#454545}</style></defs><title>performance</title><g id="cnLayer_2" data-name="Layer 2"><g id="cnArtwork"><path class="cncls-1" d="M110.5 0C49.9.91.5 50.51 0 111.21a111.56 111.56 0 0 0 27.1 74 8.07 8.07 0 0 0 11.7.4l9.7-9.7-.1-.1 13.6-13.7a6.1 6.1 0 0 0 .3-8.5 6 6 0 0 0-8.6-.1l-6.4 6.4a8 8 0 0 1-12.5-1.5 90.24 90.24 0 0 1-11.6-31.6 8 8 0 0 1 7.9-9.4h9.4a6 6 0 1 0 .2-12h-9.4A8 8 0 0 1 23.4 96a89.62 89.62 0 0 1 15.2-36 7.94 7.94 0 0 1 12.1-.9l6.8 6.8a5.92 5.92 0 0 0 4.2 1.8 5.74 5.74 0 0 0 4.1-1.6 6.19 6.19 0 0 0 0-8.8l-6.6-6.6a7.87 7.87 0 0 1 1-12.1 89.18 89.18 0 0 1 36.7-15.3 8 8 0 0 1 9.3 7.9v10.5a6 6 0 1 0 12 .2V31.21a8 8 0 0 1 9.3-7.9 89 89 0 0 1 36.5 15.2 7.94 7.94 0 0 1 1 12.1l-6.6 6.6a6.28 6.28 0 0 0-.1 8.8 5.91 5.91 0 0 0 4.1 1.6 5.76 5.76 0 0 0 4.2-1.8l6.8-6.8a8 8 0 0 1 12.2 1.1 89.63 89.63 0 0 1 16.5 52 88.73 88.73 0 0 1-12.7 46 8.06 8.06 0 0 1-12.6 1.6l-6.3-6.3a6 6 0 1 0-8.3 8.6l13.6 13.6-.1.1 9.7 9.7a8 8 0 0 0 11.8-.5A111.66 111.66 0 0 0 224.1 112C224.3 49.71 173.2-.89 110.5 0z"/><path class="cncls-1" d="M185.5 105.51l-39.5-5.6a8.17 8.17 0 0 1-5.9-4.1 32.31 32.31 0 1 0 .1 30.8 8 8 0 0 1 5.9-4.2l39.4-6c6.2-1 6.2-10 0-10.9z"/></g></g></symbol><symbol viewBox="-227.196 -227.194 2249.223 2249.219" id="plus"><path d="M2022.026 764.896l-.143 265.258-992.022-.004.292 991.735-265.254.14-.147-992.165-991.943.074-.004-265.397 991.662.217.07-991.948h265.4l-.078 991.948 992.17.142z"/></symbol><symbol viewBox="0 0 475.0790100097656 438.5359802246094" id="print"><path d="M458.96 217.124c-10.76-10.758-23.655-16.134-38.69-16.134H402V127.9c0-7.61-1.91-15.99-5.718-25.12-3.806-9.137-8.37-16.37-13.7-21.7L339.18 37.684c-5.328-5.325-12.56-9.895-21.692-13.704-9.138-3.806-17.508-5.71-25.126-5.71H100.5c-7.614 0-14.087 2.664-19.417 7.994-5.327 5.327-7.994 11.8-7.994 19.414V200.99H54.817c-15.037 0-27.932 5.38-38.688 16.134C5.376 227.876 0 240.772 0 255.81v118.773c0 2.478.905 4.61 2.712 6.426 1.81 1.803 3.95 2.706 6.423 2.706H73.09v45.68c0 7.617 2.663 14.09 7.993 19.417 5.33 5.325 11.803 7.994 19.417 7.994h274.083c7.61 0 14.093-2.67 19.418-7.994 5.33-5.332 7.995-11.8 7.995-19.417v-45.68h63.953c2.47 0 4.613-.903 6.42-2.707 1.807-1.817 2.71-3.95 2.71-6.427V255.81c.004-15.038-5.37-27.934-16.12-38.686zm-93.51 203.138H109.635v-73.087H365.45v73.087zm0-182.725H109.635V54.817h182.726v45.678c0 7.614 2.67 14.083 7.99 19.414 5.33 5.33 11.8 7.992 19.418 7.992h45.68v109.635zm67.666 31.12c-3.614 3.613-7.898 5.427-12.847 5.427-4.95 0-9.234-1.813-12.85-5.428-3.612-3.61-5.42-7.898-5.42-12.847s1.808-9.233 5.42-12.848c3.615-3.617 7.9-5.426 12.85-5.426 4.947 0 9.23 1.81 12.846 5.426 3.613 3.614 5.427 7.898 5.427 12.847s-1.81 9.236-5.427 12.846z"/></symbol><symbol viewBox="0 0 223.52 190.25" id="risks"><title>risks</title><path d="M207.14 16.49a55.69 55.69 0 0 0-61-12.19A56.46 56.46 0 0 0 128 16.66l-10.1 9.25a9.29 9.29 0 0 1-12.66-.09l-9.68-9.15A56.49 56.49 0 0 0 77.37 4.29 56 56 0 0 0 0 56.3c0 7.64 1.55 18.75 4.29 25.47A64.82 64.82 0 0 0 10 92.59h47.52a4 4 0 0 0 3.66-2.39l15-34a4 4 0 0 1 7.16-.2l23.89 44.71a4 4 0 0 0 7.18-.24l28-62.12a4 4 0 0 1 7.39.22L169.35 90a4 4 0 0 0 3.74 2.58h40.41a65 65 0 0 0 5.74-10.82c2.78-6.72 4.29-17.83 4.29-25.47a56.31 56.31 0 0 0-16.39-39.8z"/><path d="M156.94 108l-8.58-22.54a4 4 0 0 0-7.39-.22l-25.18 56a4 4 0 0 1-7.18.24L84.9 97.06a4 4 0 0 0-7.19.27l-4.79 10.87a4 4 0 0 1-3.66 2.39H26.48c26.15 26 65.09 63.59 79.44 77.42a8.08 8.08 0 0 0 11.15 0c14.44-13.81 53.71-51.45 80-77.44h-36.39a4 4 0 0 1-3.74-2.57z"/></symbol><symbol viewBox="0 0 1792 1792" id="save"><path d="M512 1536h768v-384H512v384zm896 0h128V640q0-14-10-38.5t-20-34.5l-281-281q-10-10-34-20t-39-10v416q0 40-28 68t-68 28H480q-40 0-68-28t-28-68V256H256v1280h128v-416q0-40 28-68t68-28h832q40 0 68 28t28 68v416zm-384-928V288q0-13-9.5-22.5T992 256H800q-13 0-22.5 9.5T768 288v320q0 13 9.5 22.5T800 640h192q13 0 22.5-9.5t9.5-22.5zm640 32v928q0 40-28 68t-68 28H224q-40 0-68-28t-28-68V224q0-40 28-68t68-28h928q40 0 88 20t76 48l280 280q28 28 48 76t20 88z"/></symbol><symbol viewBox="0 0 224 177" id="screen-bar-graph"><title>screen-bar-graph</title><g data-name="Layer 2"><path d="M216 0H8a8 8 0 0 0-8 8v128a8 8 0 0 0 8 8h75.5a5.5 5.5 0 0 1 0 11H66a8 8 0 0 0-8 8v6a8 8 0 0 0 8 8h92a8 8 0 0 0 8-8v-6a8 8 0 0 0-8-8h-17.5a5.5 5.5 0 0 1 0-11H216a8 8 0 0 0 8-8V8a8 8 0 0 0-8-8zm-14 118a4 4 0 0 1-4 4H26a4 4 0 0 1-4-4V26a4 4 0 0 1 4-4h172a4 4 0 0 1 4 4z"/><path d="M64.8 85h-15a4 4 0 0 0-4 4v15a4 4 0 0 0 4 4h15a4 4 0 0 0 4-4V89a4 4 0 0 0-4-4zM101.3 72h-15a4 4 0 0 0-4 4v28a4 4 0 0 0 4 4h15a4 4 0 0 0 4-4V76a4 4 0 0 0-4-4zM137.8 56h-15a4 4 0 0 0-4 4v44a4 4 0 0 0 4 4h15a4 4 0 0 0 4-4V60a4 4 0 0 0-4-4zM174.3 37h-15a4 4 0 0 0-4 4v63a4 4 0 0 0 4 4h15a4 4 0 0 0 4-4V41a4 4 0 0 0-4-4z"/></g></symbol><symbol viewBox="0 0 475.083984375 475.0810241699219" id="search"><path d="M464.524 412.846l-97.93-97.925c23.6-34.067 35.407-72.046 35.407-113.916 0-27.218-5.283-53.25-15.85-78.087-10.562-24.842-24.84-46.254-42.826-64.24-17.987-17.988-39.396-32.265-64.233-42.827C254.247 5.285 228.218.003 201 .003c-27.217 0-53.248 5.282-78.086 15.847-24.842 10.562-46.254 24.84-64.24 42.826-17.99 17.987-32.265 39.403-42.828 64.24C5.282 147.76 0 173.787 0 201.005c0 27.216 5.282 53.238 15.846 78.083 10.562 24.838 24.838 46.247 42.827 64.234 17.987 17.994 39.403 32.265 64.24 42.833 24.842 10.563 50.87 15.844 78.086 15.844 41.878 0 79.85-11.807 113.92-35.405l97.93 97.64c6.852 7.232 15.406 10.85 25.693 10.85 9.897 0 18.467-3.617 25.694-10.85 7.23-7.23 10.848-15.795 10.848-25.692.003-10.082-3.518-18.65-10.56-25.694zm-173.16-121.488c-25.03 25.033-55.15 37.55-90.365 37.55-35.21 0-65.33-12.52-90.36-37.55-25.032-25.03-37.547-55.144-37.547-90.36 0-35.21 12.518-65.334 37.546-90.36 25.025-25.032 55.15-37.546 90.36-37.546s65.33 12.52 90.363 37.546 37.548 55.15 37.548 90.36c0 35.216-12.518 65.33-37.547 90.36z"/></symbol><symbol viewBox="0 0 1761.1739501953125 1792.9620361328125" id="slideshare"><path d="M873 740q0 83-63.5 142.5T657 942t-152.5-59.5T441 740q0-84 63.5-143T657 538t152.5 59T873 740zm502 0q0 83-63 142.5T1159 942q-89 0-152.5-59.5T943 740q0-84 63.5-143t152.5-59q90 0 153 59t63 143zm225 180V253q0-87-32-123.5T1457 93H345q-83 0-112.5 34T203 253v673q43 23 88.5 40t81 28 81 18.5 71 11 70 4 58.5.5 56.5-2 44.5-2q68-1 95 27 6 6 10 9 26 25 61 51 7-91 118-87 5 0 36.5 1.5t43 2 45.5 1 53-1 54.5-4.5 61-8.5 62-13.5 67-19.5 67.5-27 72-34.5zm163-5q-121 149-372 252 84 285-23 465-66 113-183 148-104 32-182-15-86-51-82-164l-1-326v-1q-8-2-24.5-6t-23.5-5l-1 338q4 114-83 164-79 47-183 15-117-36-182-150-105-180-22-463-251-103-372-252-25-37-4-63t60 1q3 2 11 7t11 8V174q0-72 47-123T268 0h1257q67 0 114 51t47 123v694l21-15q39-27 60-1t-4 63z"/></symbol><symbol viewBox="0 0 1792 1792" id="star"><path d="M897.133 13.944l209.8 673.736h679.33l-549.465 416.587 210.052 673.8-549.717-416.398-549.475 416.397 209.81-673.8L7.878 687.68H687.27L897.134 13.945z"/></symbol><symbol viewBox="0 0 210.23 200.02" id="storage-efficiency"><title>storage-efficiency</title><circle cx="169.08" cy="17.98" r="17.98"/><circle cx="105.1" cy="17.98" r="17.98"/><circle cx="41.15" cy="17.98" r="17.98"/><circle cx="74.32" cy="60.86" r="17.98"/><circle cx="135.91" cy="60.86" r="17.98"/><path d="M201.23 94.87H9a9 9 0 0 0 0 18h192.23a9 9 0 0 0 0-18z"/><circle cx="105.11" cy="162.4" r="37.63"/></symbol><symbol viewBox="0 0 1792 1792" id="subscribe"><path d="M1478.548 1787.853c0-812.474-660.807-1473.46-1473.27-1473.46V4.147c983.427 0 1783.575 800.158 1783.575 1783.705h-310.305zM237.818 1322.52c128.53 0 232.73 104.14 232.73 232.662 0 128.41-104.2 232.67-232.73 232.67-128.47 0-232.67-104.26-232.67-232.67 0-128.522 104.2-232.66 232.67-232.66zM5.278 624.518c641.26 0 1163.215 521.815 1163.215 1163.336H858.248c0-470.316-382.724-853.16-852.97-853.16V624.516z"/></symbol><symbol viewBox="0 0 192.7 224" id="systems"><title>systems</title><g data-name="Layer 2"><path d="M184.7 161H8a8 8 0 0 0-8 8v47a8 8 0 0 0 8 8h176.7a8 8 0 0 0 8-8v-47a8 8 0 0 0-8-8zm-13.3 51.5a10 10 0 1 1 10-10 10 10 0 0 1-10 10zM184.7 80.5H8a8 8 0 0 0-8 8v47a8 8 0 0 0 8 8h176.7a8 8 0 0 0 8-8v-47a8 8 0 0 0-8-8zM171.4 132a10 10 0 1 1 10-10 10 10 0 0 1-10 10zM184.7 0H8a8 8 0 0 0-8 8v47a8 8 0 0 0 8 8h176.7a8 8 0 0 0 8-8V8a8 8 0 0 0-8-8zm-13.3 51.5a10 10 0 1 1 10-10 10 10 0 0 1-10 10z"/></g></symbol><symbol viewBox="0 0 28 28" id="th"><path d="M8 19.5v3q0 .625-.438 1.062T6.5 24h-5q-.625 0-1.062-.438T0 22.5v-3q0-.625.438-1.062T1.5 18h5q.625 0 1.062.438T8 19.5zm0-8v3q0 .625-.438 1.062T6.5 16h-5q-.625 0-1.062-.438T0 14.5v-3q0-.625.438-1.062T1.5 10h5q.625 0 1.062.438T8 11.5zm10 8v3q0 .625-.438 1.062T16.5 24h-5q-.625 0-1.062-.438T10 22.5v-3q0-.625.438-1.062T11.5 18h5q.625 0 1.062.438T18 19.5zM8 3.5v3q0 .625-.438 1.062T6.5 8h-5Q.875 8 .438 7.562T0 6.5v-3q0-.625.438-1.062T1.5 2h5q.625 0 1.062.438T8 3.5zm10 8v3q0 .625-.438 1.062T16.5 16h-5q-.625 0-1.062-.438T10 14.5v-3q0-.625.438-1.062T11.5 10h5q.625 0 1.062.438T18 11.5zm10 8v3q0 .625-.438 1.062T26.5 24h-5q-.625 0-1.062-.438T20 22.5v-3q0-.625.438-1.062T21.5 18h5q.625 0 1.062.438T28 19.5zm-10-16v3q0 .625-.438 1.062T16.5 8h-5q-.625 0-1.062-.438T10 6.5v-3q0-.625.438-1.062T11.5 2h5q.625 0 1.062.438T18 3.5zm10 8v3q0 .625-.438 1.062T26.5 16h-5q-.625 0-1.062-.438T20 14.5v-3q0-.625.438-1.062T21.5 10h5q.625 0 1.062.438T28 11.5zm0-8v3q0 .625-.438 1.062T26.5 8h-5q-.625 0-1.062-.438T20 6.5v-3q0-.625.438-1.062T21.5 2h5q.625 0 1.062.438T28 3.5z"/></symbol><symbol viewBox="0 0 28 28" id="th-list"><path d="M8 19.5v3q0 .625-.438 1.062T6.5 24h-5q-.625 0-1.062-.438T0 22.5v-3q0-.625.438-1.062T1.5 18h5q.625 0 1.062.438T8 19.5zm0-8v3q0 .625-.438 1.062T6.5 16h-5q-.625 0-1.062-.438T0 14.5v-3q0-.625.438-1.062T1.5 10h5q.625 0 1.062.438T8 11.5zm20 8v3q0 .625-.438 1.062T26.5 24h-15q-.625 0-1.062-.438T10 22.5v-3q0-.625.438-1.062T11.5 18h15q.625 0 1.062.438T28 19.5zM8 3.5v3q0 .625-.438 1.062T6.5 8h-5Q.875 8 .438 7.562T0 6.5v-3q0-.625.438-1.062T1.5 2h5q.625 0 1.062.438T8 3.5zm20 8v3q0 .625-.438 1.062T26.5 16h-15q-.625 0-1.062-.438T10 14.5v-3q0-.625.438-1.062T11.5 10h15q.625 0 1.062.438T28 11.5zm0-8v3q0 .625-.438 1.062T26.5 8h-15q-.625 0-1.062-.438T10 6.5v-3q0-.625.438-1.062T11.5 2h15q.625 0 1.062.438T28 3.5z"/></symbol><symbol viewBox="0 0 438.5299987792969 438.5329895019531" id="times-circle"><path d="M409.133 109.203c-19.608-33.592-46.205-60.19-79.798-79.796C295.735 9.8 259.058 0 219.273 0c-39.78 0-76.47 9.8-110.063 29.407-33.595 19.604-60.192 46.2-79.8 79.796C9.8 142.8 0 179.49 0 219.267c0 39.78 9.804 76.463 29.407 110.062 19.607 33.59 46.204 60.188 79.8 79.797 33.596 19.605 70.282 29.407 110.062 29.407s76.47-9.802 110.064-29.407c33.593-19.602 60.19-46.206 79.795-79.798 19.602-33.597 29.402-70.285 29.402-110.063 0-39.782-9.8-76.472-29.4-110.064zM322.62 270.94c3.618 3.612 5.43 7.904 5.43 12.853 0 5.133-1.812 9.514-5.43 13.127l-25.692 25.7c-3.614 3.614-7.994 5.42-13.135 5.42-4.948 0-9.236-1.806-12.847-5.42l-51.676-51.68-51.678 51.68c-3.616 3.614-7.898 5.42-12.847 5.42-5.14 0-9.517-1.806-13.134-5.42l-25.696-25.7c-3.616-3.613-5.424-7.994-5.424-13.127 0-4.948 1.81-9.24 5.424-12.854l51.678-51.674-51.678-51.678c-3.616-3.612-5.424-7.898-5.424-12.847 0-5.14 1.81-9.516 5.424-13.133l25.697-25.693c3.618-3.616 7.995-5.424 13.135-5.424 4.95 0 9.23 1.81 12.847 5.424l51.678 51.674 51.676-51.674c3.61-3.616 7.898-5.424 12.847-5.424 5.14 0 9.52 1.81 13.135 5.424l25.693 25.693c3.618 3.617 5.43 7.994 5.43 13.134 0 4.95-1.812 9.236-5.43 12.848l-51.674 51.678 51.675 51.673z"/></symbol><symbol viewBox="0 0 1792 1792" id="translate"><path d="M1687.254 1448.1h-465.187c-40.696 0-93.02 51.593-93.02 92.93v186.038c0 26.522-39.514 9.082-58.317-9.27L774.454 1385.33c-9.944-11.626-10.125-28.524-.362-39.88l296.82-331.11c18.983-18.255 58.136-37.24 58.136 61.593v92.93c0 41.51 52.323 93.2 93.02 93.2h279.058c40.515 0 93.02-51.69 93.02-93.2V610.745c0-41.148-52.505-92.93-93.02-92.93h-93.02c-40.695 0-93.11-51.73-93.11-93.02 0-41.237 52.415-92.928 93.11-92.928h279.148c40.424 0 92.93 51.69 92.93 92.93v930.19c0 41.42-52.506 93.112-92.93 93.112zM721.818 764.85c-18.895 18.492-57.866 21.31-57.866-60.995v-93.11c0-41.147-52.372-92.928-93.02-92.928H291.875c-40.557 0-93.02 51.78-93.02 92.93v558.114c0 41.33 52.463 93.2 93.02 93.2h93.02c40.557 0 93.02 51.504 93.02 92.93 0 41.238-52.463 93.11-93.02 93.11H105.837c-40.654 0-93.02-51.872-93.02-93.11V424.798c0-41.238 52.365-92.93 93.02-92.93h465.096c40.647 0 93.02-51.82 93.02-93.108v-92.93c0-106.642 39.242-102.51 58.046-84.207l296.227 332.563c9.985 11.447 10.354 28.43.542 39.695L721.817 764.85z"/></symbol><symbol viewBox="0 0 401.988037109375 438.52801513671875" id="trash-o"><path d="M417.69 75.654c-1.712-1.71-3.902-2.568-6.564-2.568h-88.224L302.917 25.41c-2.854-7.044-7.994-13.04-15.413-17.99C280.078 2.474 272.556 0 264.944 0h-91.362c-7.61 0-15.13 2.473-22.554 7.42-7.424 4.95-12.563 10.945-15.42 17.99l-19.984 47.676h-88.22c-2.667 0-4.853.86-6.567 2.568-1.71 1.713-2.568 3.903-2.568 6.567v18.275c0 2.664.854 4.854 2.567 6.564 1.714 1.71 3.904 2.567 6.567 2.567H54.81v271.8c0 15.803 4.473 29.266 13.418 40.398 8.947 11.14 19.7 16.703 32.264 16.703h237.542c12.566 0 23.32-5.756 32.265-17.268 8.944-11.52 13.414-25.174 13.414-40.97V109.626h27.41c2.663 0 4.854-.856 6.564-2.568 1.708-1.71 2.57-3.9 2.57-6.565V82.22c.002-2.663-.86-4.853-2.57-6.566zM169.3 39.678c1.332-1.712 2.95-2.762 4.854-3.14h90.504c1.903.38 3.525 1.43 4.854 3.14l13.71 33.404H155.31l13.99-33.404zM347.174 380.29c0 4.187-.664 8.043-2 11.562-1.333 3.518-2.716 6.088-4.14 7.706-1.43 1.622-2.423 2.427-2.998 2.427H100.493c-.57 0-1.565-.805-2.996-2.427-1.43-1.618-2.81-4.188-4.143-7.706-1.33-3.52-1.997-7.38-1.997-11.56V109.626h255.815V380.29z"/><path d="M137.04 347.172h18.27c2.668 0 4.86-.855 6.568-2.567 1.71-1.718 2.568-3.9 2.568-6.57V173.58c0-2.662-.86-4.852-2.568-6.566-1.714-1.71-3.9-2.565-6.567-2.565h-18.27c-2.667 0-4.854.854-6.567 2.564-1.71 1.714-2.568 3.904-2.568 6.567v164.455c0 2.67.854 4.853 2.568 6.57 1.713 1.71 3.9 2.567 6.567 2.567zM210.13 347.172h18.27c2.666 0 4.856-.855 6.564-2.567 1.718-1.718 2.57-3.9 2.57-6.57V173.58c0-2.662-.853-4.852-2.57-6.566-1.708-1.71-3.898-2.565-6.564-2.565h-18.27c-2.665 0-4.855.854-6.568 2.564-1.714 1.714-2.568 3.904-2.568 6.567v164.455c0 2.67.854 4.853 2.568 6.57 1.712 1.71 3.903 2.567 6.567 2.567zM283.22 347.172h18.268c2.67 0 4.86-.855 6.57-2.567 1.71-1.718 2.562-3.9 2.562-6.57V173.58c0-2.662-.852-4.852-2.562-6.566-1.71-1.71-3.9-2.565-6.57-2.565H283.22c-2.67 0-4.853.854-6.57 2.564-1.712 1.714-2.567 3.904-2.567 6.567v164.455c0 2.67.855 4.853 2.566 6.57 1.717 1.71 3.9 2.567 6.57 2.567z"/></symbol><symbol viewBox="0 0 1792 1792" id="triangle-info"><path d="M1007.64 232.17c0-61.072-49.567-110.638-110.64-110.638S786.362 171.098 786.362 232.17L11.894 1559.83c0 61.072 49.565 110.64 110.638 110.64H1671.47c61.07 0 110.637-49.567 110.637-110.64L1007.64 232.17zm-41.616 1179.954h-143.05v-429.15h143.05v429.15zm0-500.675h-143.05V696.874h143.05V911.45z"/></symbol><symbol viewBox="0 0 449.95703125 365.4410095214844" id="twitter"><path d="M449.956 85.657c-17.702 7.614-35.408 12.37-53.102 14.28 19.985-11.992 33.503-28.932 40.546-50.82-18.28 10.847-37.787 18.268-58.532 22.267-18.274-19.414-40.73-29.125-67.383-29.125-25.502 0-47.246 8.99-65.24 26.98-17.984 17.986-26.977 39.73-26.977 65.234 0 6.85.76 13.896 2.284 21.128-37.688-1.903-73.042-11.372-106.068-28.407C82.46 110.158 54.434 87.46 31.404 59.1c-8.376 14.273-12.565 29.788-12.565 46.537 0 15.798 3.71 30.456 11.137 43.97 7.422 13.512 17.417 24.455 29.98 32.83-14.85-.57-28.743-4.474-41.684-11.707v1.142c0 22.27 6.995 41.824 20.983 58.674C53.246 247.394 70.9 258 92.216 262.38a95.543 95.543 0 0 1-24.268 3.137c-5.33 0-11.136-.475-17.416-1.42 5.9 18.46 16.75 33.633 32.546 45.535 15.8 11.896 33.69 18.028 53.677 18.418-33.498 26.262-71.66 39.393-114.486 39.393-8.187 0-15.608-.373-22.27-1.14C42.825 393.9 90.03 407.7 141.61 407.7c32.74 0 63.48-5.18 92.21-15.557 28.747-10.368 53.298-24.266 73.666-41.685 20.362-17.415 37.925-37.448 52.674-60.097 14.75-22.65 25.738-46.298 32.977-70.946 7.23-24.653 10.848-49.344 10.848-74.092 0-5.33-.096-9.325-.287-11.99 18.087-13.128 33.504-29.024 46.258-47.673z"/></symbol><symbol viewBox="0 0 207.67 149.87" id="upgrade"><defs><style>.dgcls-1{fill:#454545}</style></defs><title>upgrade</title><g id="dgLayer_2" data-name="Layer 2"><path class="dgcls-1" d="M206.67 1.1a3.63 3.63 0 0 0-2.6-1.1h-61.5c-3.7.2-5.6 4.7-3.2 7.2l13.1 13.1a3.74 3.74 0 0 1 0 5.2l-38.3 38.3a3.74 3.74 0 0 1-5.2 0L88.28 43.3a7.42 7.42 0 0 0-10.5 0l-75.6 75.6a7.42 7.42 0 0 0 0 10.5l18.3 18.3a7.42 7.42 0 0 0 10.5 0l49.5-49.5a3.74 3.74 0 0 1 5.2 0l20.6 20.6a7.42 7.42 0 0 0 10.5 0l64.5-64.5a3.74 3.74 0 0 1 5.2 0l1.5 1.5 12.4 12.4c2.5 2.5 7 .3 7.2-3.4l.1-61.2a3.74 3.74 0 0 0-1.01-2.5z" id="dgArtwork"/></g></symbol><symbol viewBox="0 0 1792 1792" id="user"><path d="M272.218 1783.975c0-441.718 91.588-711.18 622.282-711.18 524.882 0 622.282 269.462 622.282 711.18H272.218zM894.5 895c-245.51 0-444.487-198.98-444.487-444.31 0-245.686 198.98-444.664 444.487-444.664s444.487 198.98 444.487 444.663C1338.987 696.02 1140.01 895 894.5 895z"/></symbol><symbol viewBox="0 0 224.63 224.31" id="visualization"><defs><style>.dicls-1{fill:#454545}</style></defs><title>Asset 1</title><g id="diLayer_2" data-name="Layer 2"><g id="diArtwork"><path class="dicls-1" d="M113.53 0a112.3 112.3 0 0 0-49.7 213.6 8 8 0 0 0 11.4-7.2v-9.2a4 4 0 0 0-2.3-3.6 90.76 90.76 0 0 1-51-79.9c-.8-49.7 39.3-91 89-91.7a90.29 90.29 0 0 1 39.6 172.1 4.18 4.18 0 0 0-2.4 3.6v9.2a8 8 0 0 0 11.3 7.3A112.28 112.28 0 0 0 113.53 0z"/><path class="dicls-1" d="M97.43 97.81a21.37 21.37 0 0 1 29.9-.2l.1.1.1.1s27.4 27.6 38 38.5a4 4 0 0 0 6.6-1.4 63.94 63.94 0 1 0-119.6.3 4 4 0 0 0 6.6 1.3c10.7-10.9 38.3-38.6 38.3-38.7z"/><path class="dicls-1" d="M154.13 149.91l-39.3-39.3a3.25 3.25 0 0 0-2.4-1 3.41 3.41 0 0 0-2.4 1L70.43 150c-2.2 2.5-.6 6.6 2.6 6.6h12.2a8 8 0 0 1 8 8v54.6a4.08 4.08 0 0 0 3.5 4 113.11 113.11 0 0 0 15.5 1.1 116.39 116.39 0 0 0 14.5-.9 4.08 4.08 0 0 0 3.5-4v-54.7a8 8 0 0 1 8-8h13.4c3.1.01 4.7-4.19 2.5-6.79z"/></g></g></symbol><symbol viewBox="0 0 15 15" id="weibo"><path class="djst0" d="M6.2 12.8c-2.5.2-4.6-.9-4.7-2.5C1.3 8.7 3.2 7.2 5.7 7c2.5-.2 4.6.9 4.7 2.5.2 1.6-1.7 3.1-4.2 3.3m5-5.3c-.2-.1-.4-.1-.2-.4.2-.6.3-1.1 0-1.5-.5-.7-1.8-.7-3.3 0 0 0-.5.2-.4-.2.2-.7.2-1.4-.2-1.7-.8-.8-3 0-4.9 1.9C.8 7 0 8.5 0 9.8c0 2.5 3.1 3.9 6.2 3.9 4 0 6.7-2.3 6.7-4.2.1-1.1-.9-1.8-1.7-2M13.8 3c-1-1.1-2.4-1.5-3.7-1.2-.3 0-.5.3-.4.6 0 .4.3.6.6.5.9-.2 2 .1 2.7.9.7.8.9 1.8.6 2.7-.1.3.1.6.4.7.3.1.6-.1.7-.4.4-1.3.1-2.7-.9-3.8"/><path class="djst0" d="M12.3 4.3c-.5-.5-1.2-.7-1.8-.6-.3.1-.4.3-.4.6.1.3.3.4.6.4.3-.1.7 0 .9.3.2.3.3.6.2.9-.1.3.1.5.3.6.3.1.5-.1.6-.3.2-.6.1-1.3-.4-1.9M6.4 9.9c-.1.1-.3.2-.4.2-.2-.1-.2-.3-.2-.4.1-.1.3-.2.4-.2.2.1.3.3.2.4m-.8 1c-.2.4-.7.5-1.1.4-.4-.2-.5-.6-.3-1s.7-.5 1.1-.4c.4.2.5.6.3 1m.9-2.7c-1.2-.3-2.5.3-3 1.3-.5 1.1 0 2.2 1.2 2.6 1.2.4 2.7-.2 3.2-1.3.4-1.1-.2-2.3-1.4-2.6"/></symbol><symbol viewBox="0 0 15 15" id="xing"><path class="dkst0" d="M13.8.2c.2.2.2.3.1.6-.6 1.1-1.3 2.2-1.9 3.3-.4.8-.9 1.6-1.3 2.4-.5.8-.9 1.5-1.3 2.3V9c.4.8.9 1.6 1.3 2.4.4.7.8 1.5 1.2 2.2l.3.6c.1.2.1.4-.1.5H9.8c-.3-.1-.4-.3-.6-.5-.5-.9-1-1.9-1.5-2.8-.4-.7-.7-1.3-1.1-2 0-.1-.1-.2-.2-.4-.1-.1-.1-.2 0-.2.3-.5.5-1 .8-1.4.5-.8.9-1.6 1.4-2.5.4-.8.9-1.6 1.3-2.4.3-.6.7-1.2 1-1.8.1-.2.3-.4.5-.5h2.4zM3 10.4H2c-.4 0-.5-.2-.3-.5.4-.8.9-1.6 1.3-2.4.3-.5.6-.9.8-1.4v-.2L2.6 3.8c0-.1-.1-.2-.1-.3-.1-.2 0-.4.2-.4h2.1c.3 0 .6.1.7.4.4.7.8 1.3 1.1 2 .1.2.2.3.3.5v.2c-.4.4-.6.9-.9 1.4-.5.8-.9 1.6-1.4 2.4-.2.3-.4.5-.8.5-.2-.1-.5-.1-.8-.1z"/></symbol><symbol viewBox="0 0 423.13299560546875 511.62799072265625" id="youtube"><path d="M459.954 264.376c-2.47-11.233-7.95-20.653-16.416-28.264-8.474-7.61-18.227-12.085-29.27-13.418-35.02-3.806-87.837-5.708-158.457-5.708-70.617 0-123.34 1.903-158.173 5.708-11.227 1.333-21.03 5.807-29.407 13.418-8.376 7.614-13.896 17.035-16.562 28.264-4.948 22.083-7.423 55.39-7.423 99.93 0 45.3 2.475 78.61 7.423 99.93 2.478 11.226 7.95 20.654 16.42 28.262 8.47 7.614 18.226 11.99 29.264 13.134 35.026 3.997 87.847 5.996 158.46 5.996 70.61 0 123.44-2 158.454-5.996 11.043-1.143 20.748-5.52 29.126-13.134 8.377-7.607 13.897-17.036 16.56-28.26 4.948-22.084 7.426-55.392 7.426-99.93 0-45.3-2.48-78.613-7.424-99.932zm-294.93 28.842h-30.548v162.45h-28.55v-162.45h-29.98V266.38h89.08v26.838zm77.086 162.45H216.7v-15.42c-10.278 11.614-19.99 17.418-29.125 17.418-8.754 0-14.275-3.524-16.556-10.564-1.522-4.568-2.287-11.52-2.287-20.844v-111.63h25.41V418.55c0 6.09.096 9.422.288 9.994.572 3.997 2.57 5.995 5.997 5.995 5.138 0 10.566-3.998 16.274-11.992v-107.92h25.41v141.04zm97.073-42.257c0 13.895-.855 23.418-2.56 28.56-3.244 10.46-9.996 15.696-20.273 15.696-9.137 0-17.986-5.235-26.556-15.697v13.7h-25.406V266.38h25.406v61.956c8.19-10.273 17.036-15.413 26.556-15.413 10.277 0 17.03 5.33 20.273 15.988 1.704 4.95 2.56 14.37 2.56 28.265v56.236zm96.502-23.407H384.58v24.84c0 13.133 4.375 19.696 13.132 19.696 6.28 0 10.09-3.423 11.42-10.28.376-1.903.57-7.707.57-17.413h25.982v3.71c0 9.33-.195 14.846-.572 16.563-.567 5.133-2.56 10.273-5.995 15.413-6.852 10.09-17.14 15.133-30.84 15.133-13.128 0-23.408-4.855-30.834-14.558-5.517-7.043-8.275-18.083-8.275-33.12v-49.396c0-15.036 2.662-26.076 7.987-33.12 7.427-9.704 17.61-14.557 30.557-14.557 12.755 0 22.85 4.853 30.263 14.558 5.146 7.043 7.71 18.083 7.71 33.12v29.41z"/><path d="M302.634 336.043c-4.38 0-8.658 2.1-12.847 6.283v85.934c4.188 4.186 8.467 6.28 12.847 6.28 7.42 0 11.14-6.373 11.14-19.13v-60.237c0-12.755-3.713-19.13-11.14-19.13zM397.428 336.043c-8.565 0-12.847 6.475-12.847 19.41v13.134h25.694v-13.134c0-12.942-4.284-19.41-12.846-19.41zM148.473 113.917v77.375h28.55v-77.375L211.562 0h-29.12l-19.41 75.09L142.758 0h-30.263c5.33 15.99 11.516 33.785 18.56 53.39 8.946 26.266 14.748 46.445 17.416 60.527zM249.82 193.29c13.134 0 23.22-4.853 30.262-14.56 5.332-7.043 7.994-18.274 7.994-33.69V95.076c0-15.225-2.67-26.363-7.994-33.406-7.043-9.708-17.128-14.562-30.262-14.562-12.756 0-22.75 4.854-29.98 14.56-5.327 7.044-7.992 18.182-7.992 33.407v49.965c0 15.225 2.662 26.457 7.992 33.69 7.233 9.707 17.223 14.56 29.98 14.56zM237.54 89.936c0-13.134 4.094-19.7 12.28-19.7s12.275 6.566 12.275 19.7v59.955c0 13.328-4.09 19.985-12.275 19.985s-12.28-6.66-12.28-19.985V89.935zM328.328 193.29c9.523 0 19.328-5.9 29.413-17.704v15.703h25.982V48.82h-25.98V157.6c-5.713 8.185-11.134 12.274-16.28 12.274-3.43 0-5.428-2.093-5.996-6.28-.19-.38-.287-3.715-.287-9.994V48.822h-25.982v112.492c0 9.705.767 16.84 2.286 21.41 2.477 7.044 8.09 10.567 16.844 10.567z"/></symbol></svg>