<?xml version="1.0" encoding="utf-8"?>
<!-- Generator: Adobe Illustrator 16.0.4, SVG Export Plug-In . SVG Version: 6.00 Build 0)  -->
<!DOCTYPE svg PUBLIC "-//W3C//DTD SVG 1.1//EN" "http://www.w3.org/Graphics/SVG/1.1/DTD/svg11.dtd">
<svg version="1.1" id="Layer_1" xmlns="http://www.w3.org/2000/svg" xmlns:xlink="http://www.w3.org/1999/xlink" x="0px" y="0px"
	 width="1792px" height="1792px" viewBox="0 0 1792 1792" enable-background="new 0 0 1792 1792" xml:space="preserve">
<path d="M1478.548,1787.853c0-812.474-660.807-1473.46-1473.27-1473.46V4.147
	c983.427,0,1783.575,800.158,1783.575,1783.705H1478.548z M237.818,1322.521c128.531,0,232.731,104.14,232.731,232.661
	c0,128.41-104.2,232.671-232.731,232.671c-128.47,0-232.671-104.261-232.671-232.671
	C5.147,1426.66,109.348,1322.521,237.818,1322.521z M5.278,624.517c641.26,0,1163.215,521.815,1163.215,1163.336H858.248
	c0-470.316-382.724-853.161-852.97-853.161V624.517z"/>
</svg>
