<svg xmlns="http://www.w3.org/2000/svg" viewBox="0 0 192.7 224"><title>systems</title><g id="Layer_2" data-name="Layer 2"><g id="Artwork"><path d="M184.7,161H8a8,8,0,0,0-8,8v47a8,8,0,0,0,8,8H184.7a8,8,0,0,0,8-8V169A8,8,0,0,0,184.7,161Zm-13.3,51.5a10,10,0,1,1,10-10A10,10,0,0,1,171.4,212.5Z"/><path d="M184.7,80.5H8a8,8,0,0,0-8,8v47a8,8,0,0,0,8,8H184.7a8,8,0,0,0,8-8v-47A8,8,0,0,0,184.7,80.5ZM171.4,132a10,10,0,1,1,10-10A10,10,0,0,1,171.4,132Z"/><path d="M184.7,0H8A8,8,0,0,0,0,8V55a8,8,0,0,0,8,8H184.7a8,8,0,0,0,8-8V8A8,8,0,0,0,184.7,0ZM171.4,51.5a10,10,0,1,1,10-10A10,10,0,0,1,171.4,51.5Z"/></g></g></svg>