<?xml version="1.0" encoding="utf-8"?>
<!-- Generator: Adobe Illustrator 16.0.4, SVG Export Plug-In . SVG Version: 6.00 Build 0)  -->
<!DOCTYPE svg PUBLIC "-//W3C//DTD SVG 1.1//EN" "http://www.w3.org/Graphics/SVG/1.1/DTD/svg11.dtd">
<svg version="1.1" id="Layer_1" xmlns="http://www.w3.org/2000/svg" xmlns:xlink="http://www.w3.org/1999/xlink" x="0px" y="0px"
	 width="1792px" height="1792px" viewBox="0 0 1792 1792" enable-background="new 0 0 1792 1792" xml:space="preserve">
<path d="M1687.254,1448.1h-465.187c-40.696,0-93.02,51.593-93.02,92.929v186.039c0,26.522-39.514,9.082-58.317-9.271
	l-296.276-332.466c-9.944-11.627-10.125-28.525-0.362-39.882l296.819-331.109c18.984-18.255,58.137-37.24,58.137,61.593v92.929
	c0,41.51,52.323,93.2,93.02,93.2h279.058c40.515,0,93.02-51.69,93.02-93.2V610.746c0-41.148-52.505-92.929-93.02-92.929h-93.02
	c-40.695,0-93.109-51.732-93.109-93.02c0-41.238,52.414-92.929,93.109-92.929h279.148c40.424,0,92.929,51.69,92.929,92.929v930.192
	C1780.183,1396.409,1727.678,1448.1,1687.254,1448.1z M721.818,764.851c-18.895,18.491-57.866,21.308-57.866-60.996v-93.109
	c0-41.148-52.372-92.929-93.02-92.929H291.875c-40.557,0-93.019,51.781-93.019,92.929v558.115c0,41.329,52.462,93.2,93.019,93.2
	h93.02c40.557,0,93.019,51.503,93.019,92.929c0,41.238-52.462,93.109-93.019,93.109H105.837c-40.654,0-93.02-51.871-93.02-93.109
	V424.798c0-41.238,52.365-92.929,93.02-92.929h465.096c40.647,0,93.02-51.822,93.02-93.109v-92.929
	c0-106.643,39.242-102.512,58.046-84.208l296.228,332.563c9.985,11.447,10.354,28.429,0.542,39.695L721.818,764.851z"/>
</svg>
