<svg xmlns="http://www.w3.org/2000/svg" viewBox="0 0 207.67 149.87"><defs><style>.cls-1{fill:#454545;}</style></defs><title>upgrade</title><g id="Layer_2" data-name="Layer 2"><g id="Artwork"><path class="cls-1" d="M206.67,1.1a3.63,3.63,0,0,0-2.6-1.1h-61.5c-3.7.2-5.6,4.7-3.2,7.2l13.1,13.1a3.74,3.74,0,0,1,0,5.2l-38.3,38.3a3.74,3.74,0,0,1-5.2,0L88.28,43.3a7.42,7.42,0,0,0-10.5,0L2.18,118.9a7.42,7.42,0,0,0,0,10.5l18.3,18.3a7.42,7.42,0,0,0,10.5,0l49.5-49.5a3.74,3.74,0,0,1,5.2,0l20.6,20.6a7.42,7.42,0,0,0,10.5,0l64.5-64.5a3.74,3.74,0,0,1,5.2,0l1.5,1.5,12.4,12.4c2.5,2.5,7,.3,7.2-3.4l.1-61.2A3.74,3.74,0,0,0,206.67,1.1Z"/></g></g></svg>