<svg xmlns="http://www.w3.org/2000/svg" viewBox="0 0 224.63 224.31"><defs><style>.cls-1{fill:#454545;}</style></defs><title>Asset 1</title><g id="Layer_2" data-name="Layer 2"><g id="Artwork"><path class="cls-1" d="M113.53,0a112.3,112.3,0,0,0-49.7,213.6,8,8,0,0,0,11.4-7.2v-9.2a4,4,0,0,0-2.3-3.6,90.76,90.76,0,0,1-51-79.9c-.8-49.7,39.3-91,89-91.7a90.29,90.29,0,0,1,39.6,172.1,4.18,4.18,0,0,0-2.4,3.6v9.2a8,8,0,0,0,11.3,7.3A112.28,112.28,0,0,0,113.53,0Z"/><path class="cls-1" d="M97.43,97.81h0a21.37,21.37,0,0,1,29.9-.2l.1.1.1.1s27.4,27.6,38,38.5a4,4,0,0,0,6.6-1.4,63.94,63.94,0,1,0-119.6.3,4,4,0,0,0,6.6,1.3c10.7-10.9,38.3-38.6,38.3-38.7Z"/><path class="cls-1" d="M154.13,149.91l-39.3-39.3a3.25,3.25,0,0,0-2.4-1h0a3.41,3.41,0,0,0-2.4,1L70.43,150c-2.2,2.5-.6,6.6,2.6,6.6h12.2a8,8,0,0,1,8,8v54.6a4.08,4.08,0,0,0,3.5,4,113.11,113.11,0,0,0,15.5,1.1,116.39,116.39,0,0,0,14.5-.9,4.08,4.08,0,0,0,3.5-4v-54.7a8,8,0,0,1,8-8h13.4C154.73,156.71,156.33,152.51,154.13,149.91Z"/></g></g></svg>