<?xml version="1.0" encoding="utf-8"?>
<!-- Generator: Adobe Illustrator 19.1.0, SVG Export Plug-In . SVG Version: 6.00 Build 0)  -->
<svg version="1.1" id="Layer_1" xmlns="http://www.w3.org/2000/svg" xmlns:xlink="http://www.w3.org/1999/xlink" x="0px" y="0px"
	 viewBox="0 0 15 15" style="enable-background:new 0 0 15 15;" xml:space="preserve">
<path class="st0" d="M6.2,12.8c-2.5,0.2-4.6-0.9-4.7-2.5C1.3,8.7,3.2,7.2,5.7,7c2.5-0.2,4.6,0.9,4.7,2.5
	C10.6,11.1,8.7,12.6,6.2,12.8 M11.2,7.5c-0.2-0.1-0.4-0.1-0.2-0.4c0.2-0.6,0.3-1.1,0-1.5c-0.5-0.7-1.8-0.7-3.3,0
	c0,0-0.5,0.2-0.4-0.2c0.2-0.7,0.2-1.4-0.2-1.7c-0.8-0.8-3,0-4.9,1.9C0.8,7,0,8.5,0,9.8c0,2.5,3.1,3.9,6.2,3.9c4,0,6.7-2.3,6.7-4.2
	C13,8.4,12,7.7,11.2,7.5"/>
<path class="st0" d="M13.8,3c-1-1.1-2.4-1.5-3.7-1.2h0C9.8,1.8,9.6,2.1,9.7,2.4C9.7,2.8,10,3,10.3,2.9c0.9-0.2,2,0.1,2.7,0.9
	c0.7,0.8,0.9,1.8,0.6,2.7l0,0c-0.1,0.3,0.1,0.6,0.4,0.7c0.3,0.1,0.6-0.1,0.7-0.4c0,0,0,0,0,0C15.1,5.5,14.8,4.1,13.8,3"/>
<path class="st0" d="M12.3,4.3c-0.5-0.5-1.2-0.7-1.8-0.6c-0.3,0.1-0.4,0.3-0.4,0.6c0.1,0.3,0.3,0.4,0.6,0.4v0c0.3-0.1,0.7,0,0.9,0.3
	c0.2,0.3,0.3,0.6,0.2,0.9h0c-0.1,0.3,0.1,0.5,0.3,0.6c0.3,0.1,0.5-0.1,0.6-0.3C12.9,5.6,12.8,4.9,12.3,4.3"/>
<path class="st0" d="M6.4,9.9c-0.1,0.1-0.3,0.2-0.4,0.2C5.8,10,5.8,9.8,5.8,9.7c0.1-0.1,0.3-0.2,0.4-0.2C6.4,9.6,6.5,9.8,6.4,9.9
	 M5.6,10.9c-0.2,0.4-0.7,0.5-1.1,0.4c-0.4-0.2-0.5-0.6-0.3-1c0.2-0.4,0.7-0.5,1.1-0.4C5.7,10.1,5.8,10.5,5.6,10.9 M6.5,8.2
	C5.3,7.9,4,8.5,3.5,9.5c-0.5,1.1,0,2.2,1.2,2.6c1.2,0.4,2.7-0.2,3.2-1.3C8.3,9.7,7.7,8.5,6.5,8.2"/>
</svg>
